<?xml version="1.0" encoding="utf-8"?>
<!-- Generator: Adobe Illustrator 16.0.5, SVG Export Plug-In . SVG Version: 6.00 Build 0)  -->
<!DOCTYPE svg PUBLIC "-//W3C//DTD SVG 1.1//EN" "http://www.w3.org/Graphics/SVG/1.1/DTD/svg11.dtd">
<svg version="1.1" id="Layer_1" xmlns="http://www.w3.org/2000/svg" xmlns:xlink="http://www.w3.org/1999/xlink" x="0px" y="0px"
	 width="375.506px" height="490.089px" viewBox="0 0 375.506 490.089" enable-background="new 0 0 375.506 490.089"
	 xml:space="preserve">
<path id="path394" fill="#AFB1B4" d="M51.803,471.607c0.062,0.031-10.734-11.008-10.734-4.618c0,2.161-0.945,4.746,0.951,6.788
	c-0.114-0.124-2.391,7.716-1.359,6.766c0.221-0.205-6.555,0.264-4.462,2.596c1.946,2.15-1.305,3.174-2.507,4.289
	c-5.785,5.351,7.413,1.023,5.269,0.747c-0.611-0.081-1.837,0.584-2.639,0.644c1.647-0.123,2.619-2.509,3.233-2.888
	c1.081-0.666,3.466,1.037,5.439,0.433c3.164-0.99,10.045-4.638,10.75-2.99c-0.412-0.954,0.517-0.65-0.637-1.731
	c1.031,0.967,0.819-6.071,0.062-6.123c1.03,0.072-1.848,3.025-1.848,2.502c0-2.411-4.979-2.475-6.12-0.788
	c0.588-0.873,2.736-3.116,2.634-3.775C50.278,476.348,57.998,474.9,51.803,471.607z"/>
<path id="N_South_Island" fill="#AFB1B4" d="M239.671,252.885c2.523,0,3.799-2.746,5.097-5.193
	c-1.441,1.095-12.344,2.505-12.372,2.336c-0.112-0.662,2.935-0.639,1.9-1.954c0.617,0.785,5.992-0.593,6.897-1.523
	c0.539-0.555-1.745-2.549-1.308-2.649c1.094-0.253,0.114-0.14,0.926-0.891c-0.473,0.437,0.523,1.66,0.977,1.928
	c0.211,0.125,3.121-5.418,3.1-5.428c-0.407-0.188-3.492,4.339-4.5,1.9c0.035,0.084,1.07-0.935,1.601-1.556
	c-0.611,0.27-1.677-1.365-1.776-1.524c1.021,1.67-1.554,0.93-1.61,0.907c-0.302-0.121-0.107,2.053-0.424,1.612
	c0.209,0.289-2.693-2.273-2.842-2.661c-0.221,0.229-1.245,1.155-0.515,1.834c-0.615-0.566-1.18,0.508-1.444,0.628
	c-0.073,0.036,1.446-0.067,1.062,0.866c0.078-0.193,1.482-1.614,1.817-1.355c1.432,1.103-1.283,1.73,0.395,3.285
	c-1.536-1.432-1.652,1.431-2.243,1.272c-1.126-0.302,0.61-2.301,0.026-2.291c-3.336,0.062-2.109,3.959-2.799,4.754
	c0.576-0.661,3.923-1.154,5.058-1.575c-1.05,0.386,1.805,0.765,2.164,0.472c-1.479,1.199-6.749,0.352-7.772,2.087
	c0.033-0.056,1.693,0.036,1.872-0.007c-0.528,0.127-3.767,1.553-3.233,1.973c0.232,0.067,0.452,0.117,0.636,0.117
	c-0.352,0-0.543-0.045-0.636-0.117c-0.777-0.23-1.707-0.696-2.04-0.433c1.203-0.952,1.931,0.024,2.845-1.337
	c2.255-3.358-2.042-2.377-2.042-2.793c0,0.027,2.931-2.159,3.194-1.452c-0.091-0.244-0.812-1.079-0.724-1.204
	c0.09-0.127,0.284-0.229,0.527-0.32c-1.177,0.161-2.341,0.195-3.424,1.206c0.271-0.378,0.2-0.576-0.213-0.592
	c0.465-1.107,0.297-1.809,1.53-2.242c-0.255-0.348-0.609-0.558-1.062-0.628c0.579-0.25,1.061-0.631,1.445-1.142
	c0.368,0,1.163,0.986,3.267-0.235c-0.103-0.084-0.216-0.133-0.333-0.157c-0.142,0.023-0.294,0.04-0.474,0.04
	c0.17-0.061,0.327-0.071,0.474-0.04c1.548-0.261,0.957-1.848,2.033-2.594c0.22,0.294,0.376,0.624,0.468,0.982
	c0.331,0.388-0.596-1.793-0.596-1.808c0,0.494-4.063,3.709-4.461,3.421c-0.153-0.112,0.616-2.124,0.258-2.124
	c-0.042,0-5.183,4.756-5.312,4.486c0.794,0.616,1.559,0.511,2.294-0.314c-0.124,0.114,0.223,0.538,0.127,0.668
	c0.197-0.275-4.312,1.965-2.506,2.022c-2.765-0.088-2.115-1.95-6.077,1.713c-0.469,0.435-8.817,6.262-9.601,6.098
	c-0.463-0.097-0.973-0.664-1.484-1.493c-0.078-0.007-0.094-0.041-0.057-0.092c-1.854-3.074-3.692-9.521-3.176-9.589
	c5.523-0.722-2.16-13.416-3.311-7.631c-0.662,3.331-10.059-6.19-7.395-6.662c1.871-0.332,0.453-4.889,3.825-4.825
	c1.984,0.038,6.567,0.429,8.019,1.893c-5.389-5.438-16.514-1.597-20.298,4.008c-4.751,7.039-8.199,5.923-8.894,14.998
	c-0.617,8.063-1.802,11.021-5.515,17.651c-3.354,5.987-6.44,5.683-11.088,7.897c-6.781,3.229-5.89,17.19-10.038,24.354
	c-4.569,7.896-12.205,24.41-22.917,25.493c-5.238,0.529-7.209,6.442-11.396,8.192c-1.925,0.812-10.027,6.79-11.015,8.253
	c-0.899,1.333-1.825,2.349-2.773,3.154l112.513-24.85c4.048-5.972,3.796-16.819,12.006-17.682c-3.511,0.36,6.077-9.72,6.458-9.952
	c1.025-0.631,2.091-6.226,3.781-7.791c2.872-2.656,5.116-5.754,7.224-9.007c-2.359,3.644-11.355-19.341-4.074-17.271
	c0.331,0.094,0.437,0.172,0.438,0.23c0.13-0.031,0.299-0.067,0.532-0.111C240.855,250.492,238.718,252.885,239.671,252.885z"/>
<path id="Queenstown" fill="#AFB1B4" d="M94.995,340.336c-2.359,0.806-4.81,1.692-7.326,3.834
	c-3.329,2.834-9.178,6.068-11.604,9.488c-2.952,4.154-7.697-0.374-10.386,2.378c-2.63,2.704-5.075-0.208-7.647,4.564
	c-0.565,1.049-6.865,5.841-6.874,5.808c0.495,1.937,2.369,0.07,1.5,2.609c-0.264,0.776-3.765-0.96-2.996,0.611
	c0.721,1.478-2.827,2.965-3.717,3.62c-4.267,3.101-0.429,7.666,1.147,9.99c-4.544-6.777-8.087,0.265-8.244,0.196
	c-4.294-1.861-1.294,2.096-0.572,3.796c-0.497-1.179-2.524-2.385-4.123-1.021c0.423-0.358,0.634,1.608,0.731,3.229
	c0.132,0.512,0.173,1.161,0.076,1.983c0.006,0.041-0.01-0.894-0.076-1.983c-1.038-4.043-8.021,0.977-2.516,6.073
	c-0.51-0.47-1.426,0.01-1.763,0.708c0.575-1.202-0.607-6.933-3.081-5.409c-8.518,5.264,0.091,4.788,0.526,7.347
	c-0.372-2.184-12.386-1.469-3.01,2.134c-1.748-0.676-2.464,0.662-1.211,1.811c-6.153-5.893-3.234,1.184-0.659,1.184
	c-4.318,0-1.828-3.452-5.078,0.057c-0.31,0.344-0.493,0.689-0.577,1.029c0.148,0.573,0.321,1.189,0.487,1.761
	c1.185,1.407,4.053,2.028,5.634,0.224c-0.061,0.068-0.403,2.307,0.304,2.804c0.293,0.08,0.567,0.088,0.817-0.045
	c-0.367,0.194-0.627,0.179-0.817,0.045c-1.329-0.362-3.069-2.281-4.957-0.187c0.289-0.32,1.136,0.775,2.014,2.132
	c0.467,0.301,0.732,0.781,0.838,1.353c0.844,1.407,1.551,2.709,1.592,2.754c-0.228-0.405-0.499-0.779-0.812-1.124
	c0.083,0.042-1.2,1.679-1.814,2.406c-0.052,0.068-0.104,0.125-0.157,0.184c-0.058,0.064-0.105,0.116-0.132,0.142
	c0.044-0.04,0.088-0.095,0.132-0.142c0.045-0.052,0.097-0.112,0.157-0.184c0.707-0.92,1.284-2.702,1.034-4.036
	c-0.271-0.453-0.556-0.914-0.838-1.353c-0.314-0.2-0.71-0.327-1.229-0.327c2.089,0-4.217,3.348-3.688,2.729
	c0.975-1.139,2.556-1.974,3.284-2.651c0.25-0.231-1.867-1.261-3.078-1.155c-0.208,0.132-0.432,0.239-0.682,0.312
	c0.139-0.192,0.384-0.285,0.682-0.312c0.268-0.17,0.504-0.385,0.699-0.654c-0.146-0.244-0.299-0.437-0.453-0.606
	c-0.526-0.103-1.031-0.264-1.503-0.517c-0.012-0.005,0.946,0.31,1.468,0.48c-1.634-1.743-3.631,0.345-4.609,1.881
	c-0.887,1.389,2.878,3.854,2.485,1.83c0.105,0.546,0.634,1.847,1.466,1.612c-2.563,0.732-7.209-1.363-7.209,3.93
	c0,3.466,5.086,1.494,8.223-0.254c0.77-0.494,1.56-0.951,1.747-1.085c-0.428,0.308-1.039,0.69-1.747,1.085
	c-0.545,0.352-1.074,0.72-1.374,1.009c0.93-0.146,1.853-0.05,2.61,0.449c-0.717-0.474-2.463,0.388-2.833,0
	c-0.085-0.09,0.017-0.252,0.222-0.449c-4.27,0.666-8.688,6.491,2.045,2.523c-0.872,0.325-8.428,5.164-7.136,5.037
	c0.55-0.063,1.254-0.098,2.001-0.142c0.005-0.005,0.006-0.009,0.012-0.015c0.654-0.376,1.319-0.418,1.996-0.148
	c1.195-0.146,2.259-0.399,2.732-0.929c0.007-0.007-0.354,0.944,0.821,0.762c-0.803,0.125-1.781,0.319-2.85,0.572
	c-0.204,0.313-3.207,0.919-2.102,0.688c-0.139,0.127-0.382,0.121-0.581,0.025c-2.434,0.715-4.995,1.658-6.958,2.755
	c-0.059,0.033-9.437,0.953-3.484,7.998c0.623,0.729,1.604,0.278,2.648-0.638c-0.059-0.043-0.002-0.129,0.236-0.212
	c1.903-1.773,3.941-4.892,4.368-5.132c-0.083,0.046-1.547,3.454-1.161,3.62c0.493,0.07,0.981,0.087,1.467,0.066
	c0.644-0.296,1.295-0.433,1.902-0.303c-0.628,0.183-1.262,0.278-1.902,0.303c-2.244,1.037-4.394,4.136-4.271,5.652
	c-0.063-0.751,4.519-1.111,4.854-2.827c-0.22,1.129-0.692,0.494-0.526,1.817c0.01-0.012,0.021-0.024,0.031-0.037
	c0.025-0.068,0.071-0.132,0.149-0.184c1.943-2.379,4.003-4.842,6.114-5.495c-2.036,0.628-5.37,5.312-4.971,5.192
	c-0.006,0.002-0.786,0.07-1.143,0.303c-0.05,0.062-0.1,0.123-0.149,0.184c-0.012,0.033-0.03,0.065-0.024,0.104
	c-0.004-0.026-0.003-0.041-0.006-0.066c-1.056,1.295-2.078,2.548-3.052,3.449c-0.301,0.278,16.764,6.051,19.261,4.408
	c0.637-0.424,4.861,0.194,3.831-1.613c-0.305-0.534,0.854-2.277,1.551-2.637c3.012-1.554,12.262,4.957,8.837,6.399
	c-2.249,0.942,11.187,4.83,11.007,3.202c-0.545-4.943,4.99,1.157,5.987,3.145c0.598,1.06-0.009,1.48,1.446,1.586
	c0.916,0.067,0.208-1.648-0.383-1.638c0.9-0.016,1.878-1.551,2.076-1.279c2.185,3.003-1.337,2.675-1.523,4.213
	c0.081-0.69-1.543-0.707-1.869-0.707c-0.79,0,3.442,5.058,3.574,4.866c1.074-1.557-1.612-1.626-0.982-3.138
	c0.128-0.31,5.913,0.771,6.33,1.416c-0.044-0.069-6.133-1.016-4.716,0.748c3.25,3.955,10.795-5.627,14.529,1.928
	c1.588,3.203,10.222-1.123,9.857-1.377c1.041,0.719,2.89,1.943,6.542,0.669c3.107-1.087,14.17-5.712,12.959-10.19
	c-0.663-2.439,6.241-5.523,7.604-6.884c3.389-3.379,4.032-5.106,6.672-9.051c3.125-4.672,11.778-4.335,16.017-5.468
	c0.773-0.21-0.286-3.188-1.872-3.188c-2.372,0-3.028,3.542-5.692,3.542c1.89,0,4.385-5.651,6.147-4.463
	c-3.551-2.396-2.567-4.684-0.763-7.315l-34.108-81.027L94.995,340.336z"/>
<path id="Christchurch" fill="#AFB1B4" d="M134.214,418.752c1.096-1.547,2.198-3.227,2.681-5.115
	c1.646-6.471,5.113-11.725,9.774-19.277c2.407-3.901,0.524-9.13,0.867-13.347c0.171-2.114,3.564-7.063,2.915-8.714
	c-1.834-4.658,12.27-11.557,15.333-13.256c9.491-5.262,26.84-14.376,36.917-7.383c-1.697-1.178-0.677-5.181-0.192-5.24
	c0.016-0.017,0.038-0.017,0.074,0.018c-0.021-0.021-0.048-0.021-0.074-0.018c-0.29,0.319,3.1,9.278,4.287,3.705
	c0.604-2.829,1.09-3.199,0.797-4.594c-0.578-2.757-7.34-4.16-6.501-2.597c-0.544-1.009,1.248-1.536-0.382-2.439
	c-0.664,0.047-1.119,0.321-1.401,0.781c0.2,0.16,0.149,0.42-0.298,0.832c0.044-0.336,0.156-0.601,0.298-0.832
	c-0.773-0.618-5.356,0.306-5.608,0.042c-1.056-1.097,4.56-1.305,4.504-1.298c-4.713,0.59-2.041-14.393-0.934-16.445
	c1.25-2.317,10.264-7.278,12.564-7.982c0.85-0.26,1.593-0.642,2.254-1.119l-111.413,24.607L134.214,418.752z"/>
<path id="Hamilton" fill="#AFB1B4" d="M330.353,127.747c0.043-0.003,0.604,0.013,1.084-0.003l0.593-0.241
	c-1.563-1.956-8.148-2.61-10.308-3.438c-2.812-1.08-5.598-2.025-8.111-3.698c-0.995-0.663-11.601-5.37-11.272-5.827
	c-1.056,1.451,1.079,1.942,1.571,2.399c-0.161-0.149-1.834,0.802-2.505-1.062c-0.467-1.311-1.962-0.367-2.294-0.609
	c0.032,0.023-3.482-0.517-2.844-1.042c0.063-0.052-1.385-6.961-0.041-5.468c-0.971-1.082-1.287-4.914-1.944-6.501
	c-0.642-1.554-0.801-1.78-1.116-3.098c0.26,0.078,0.5,0.196,0.723,0.354c0.542-0.664,0.159-7.302-1.571-6.608
	c1.422-0.562,0.266-6.424-2.252-6.965c-0.19,0.092-0.311,0.214-0.371,0.361c0.062,0.085,0.082,0.261,0.031,0.584
	c-0.091-0.229-0.098-0.422-0.031-0.584c-0.335-0.464-2.026,2.018-1.924,1.885c-0.232,0.302-1.219-1.671-0.717-1.836
	c0.886-0.29,1.507-0.331,1.667-1.411c0.239-1.608,2.917-1.796,2.917-2.93c0,0.012-1.361,0.028-1.02-1.023
	c-0.391,1.194-5.683,1.328-5.731,1.532c0.51-2.173-1.083-0.692-1.489-1.741c-0.182-0.473,2.048-3.198-0.627-2.952
	c1.966-0.181-3.376-4.917-1.868-2.912c-0.22-0.293-4.107-2.871-4.107-1.601c0,2.916,0.9,3.271,3.853,5.141
	c-1.317-0.833-1.043,3.509-0.058,4.118c0.073,0.284,0.045,0.543-0.07,0.782c0.336-0.272,0.701,0.452,0.922,0.633
	c1.042,0.86-1.811,1.186-1.925,1.26c-0.239,0.152,0.767,0.704,0.75,0.703c-0.416-0.231-0.677-0.213-0.796,0.031
	c0.257,0.035,0.614,0.174,1.121,0.47c-0.385-0.137-0.771-0.272-1.158-0.406c0.009-0.027,0.025-0.041,0.037-0.064
	c-1.619-0.221,1.214,4.106,1.55,4.568c1.949,2.682,0.102,5.133,2.49,7.914c-0.97-1.118-5.081,2.474-7.07,0.535l-17.72,12.729
	c0.777,1.861,0.831,8.238,2.18,9.221c1.285,0.946,2.319-2.819,4.124-1.145c0.046,0.042-1.198,0.378-1.583,0.445
	c0.256,0.024,0.866,0.16,1.226,0.376c0.168,0.058,0.271,0.162,0.271,0.333c0-0.125-0.111-0.237-0.271-0.333
	c-1.078-0.375-5.068,1.269-5.231,1.344c-1.584,0.733-0.337,6.11,1.001,5.755c-0.243,0.065,1.565-2.896,1.654-0.879
	c0.013,0.292-0.426,2.224-1.211,1.593c-1.627-1.309-1.748,2.975-1.425,2.931c1.531-0.208,2.062-2.444,3.587-0.629
	c-0.195-0.232-2.19,2.304-2.208,2.333c-0.485,0.784-1.406-0.964-1.651-1.439c0.007,0.411-2.471,0.748-2.931,0.555
	c0.842,0.354,1.448,7.498,0.703,7.92c-1.899,1.075-2.23,3.151-2.196,5.06c0.08,4.507-0.258,10.667-2.885,14.947l79.05-32.16
	C330.711,127.819,330.511,127.736,330.353,127.747z"/>
<path id="Napier" fill="#AFB1B4" d="M372.987,114.972c-0.798,0-6.789-1.355-4.161-2.715c-0.429,0.222-5.95-0.679-7.137-0.742
	c-2.896-0.154-2.992-0.287-4.377,2.277c-0.065,0.123-3.378,1.848-3.782,1.848c-4.211,0-6.301,6.159-9.281,9.198
	c-1.855,1.892-4.397,2.688-6.959,2.957c-0.244,0.026-0.614,0.001-1.044-0.033l-3.938,1.602c0.021,0.092,0.031,0.178,0.064,0.28
	c-0.026-0.079-0.067-0.167-0.116-0.259l-43.5,17.697l30.735,63.686c0.805-0.504,1.764-0.858,2.542-1.338
	c0.564-0.66,1.06-1.368,1.486-2.124c1.218-0.796,0.896-3.363,1.149-4.484c0.361-1.608,1.896-3.011,2.145-4.553
	c0.243-1.5,3.087-10.083,3.912-10.043c-3.099-0.153-6.736-1.381-5.118-5.861c-0.483,1.32-3.303-4.781-0.237-4.445
	c1.252,0.137,3.851-4.435,3.851-5.625c0-1.233,5.095-2.981,6.034-3.462c4.018-2.05,13.174-3.538,17.419-1.574
	c1.236,0.573,1.157-0.817,2.082,0.04c0.484,0.449-0.837,3.311-1.316,3.422c0.47-0.107,1.519,3.713,1.484,3.776
	c0.988-1.827,3.666-4.084,4.207-5.822c-0.169,0.543-3.521-1.569-3.556-2.757c-0.042-1.468,0.297-3.126,0.582-4.562
	c0.087-0.439,0.737-6.389,1.866-5.558c-2.088-1.538,0.34-4.163,2.344-1.997c0.424,0.458,4.007-2.717,4.425-3.275
	c2.023-2.712,2.871-1.643,3.02-4.751c0.011-0.209,1.838-3.903,1.83-3.9c-0.637,0.294-1.224,0.222-1.763-0.216
	c0.089-0.852,1.157-0.167,1.157-1.55c0-1.245,0.479-0.578,1.062-1.337c-0.527,0.688-2.109-4.29,0-4.29
	c-1.271,0-1.667-2.359-0.086-2.359c1.663,0-0.296-2.692-0.345-2.777c-0.331-0.583,1.899-6.138,2.768-6.583
	C374.82,121.528,377.676,114.972,372.987,114.972z"/>
<path id="Wellington" fill="#AFB1B4" d="M248.905,163.295c-0.578,0.4-1.196,0.761-1.892,1.038c-1.464,0.58-3.824-0.354-5.513,0.1
	c-1.982,0.534-3.282,2.175-5.435,2.483c-1.76,0.252-7.635,4.261-7.861,6.452c-0.268,2.588-0.961,2.935,0.171,6.072
	c0.639,1.786,4.7,5.228,6.18,5.755c2.771,0.988,6.224,0.787,8.764,2.283c3.409,2.01,5.443,5.522,8.92,7.511
	c3.372,1.928,6.896,1.195,10.25,2.541c3.109,1.248,5.68,4.664,7.852,7.203c5.136,6,2.535,18.144-0.597,24.505
	c-1.532,3.115-4.611,5.562-4.611,8.998c0-0.505-5.657,6.326-2.145,5.024c-0.84,0.311-0.595,0.138-1.198,0.695
	c-0.1-0.347-0.08-0.697,0.059-1.049c-0.093-0.578-4.62,4.12-4.92,4.456c-1.592,1.789-4.355,2.283-1.7,5.329
	c0.837,0.96,2.688,0.276,3.548,0.156c2.125-0.298,2.636-2.759,1.772-2.491c-0.237,0.213-0.389,0.475-0.454,0.787
	c0-3.727,4.151-2.495,2.976-0.683c-2.136,3.291-1.281,3.53,0.313,5.98c-0.25-0.387,4.372-2.412,4.929-2.412
	c1.409,0,3.138,1.065,4.306,1.783c0.498,0.308-1.149,6.412,0.736,6.662c6.471,0.862,10.02-5.821,15.859-8.075
	c1.684-0.839,3.505-2.07,3.971-4.094c0.313-1.352,2.618-0.927,3.144-2.281c1.287-3.318,3.935-5.59,4.887-9.324
	c0.508-1.975,2.678-1.572,2.678-3.462c0-0.631,1.117-2.818,1.384-3.426c1.362-3.121,4.908-5.294,6.088-8.186
	c0.685-1.678,2.756-3.789,4.891-3.3c0.021,0.005,0.539-3.414,0.635-3.702c0.414-1.265,0.584-3.12,1.26-4.431l-31.091-64.422
	L248.905,163.295z"/>
<path id="Auckland" fill="#AFB1B4" d="M275.438,96.439c-0.407-3.36,0.362-4.227-2.575-6.393c-1-0.737-3.044-0.431-4.28,0.334
	c2.917-1.81-3.683-3.747-3.122-2.458c0.321,0.734-0.552,1.083-0.433,1.256c-0.626-0.904-1.513-1.711-1.746-2.783
	c0.072,0.327-0.337,1.152-0.685,1.726c-0.043,0.083-0.104,0.173-0.168,0.267c-0.063,0.096-0.124,0.18-0.169,0.236
	c0.069-0.086,0.114-0.159,0.169-0.236c0.053-0.08,0.109-0.168,0.168-0.267c0.943-1.764-2.767-1.061-3.085-0.967
	c-0.493,0.157-1.848-2.082-2.607,0.315c-0.406,0.049-0.614-0.143-0.625-0.577c-0.199,0.21-0.303,0.464-0.311,0.761
	c0.311-1.567-0.226-1.045-0.908-1.679c-0.214-0.201,0.534-1.125,0.635-1.052c-0.094-0.068-1.097-0.365-1.258-0.365
	c0.289,0,0.982-0.619,1.163-0.787c-0.085,0.254-0.104,0.517-0.056,0.788c0.299,0.047,0.553-0.015,0.771-0.165
	c0.079-0.1,0.181-0.207,0.333-0.333c-0.097,0.146-0.211,0.25-0.333,0.333c-0.948,1.196,3.069,0.559,2.798,0.559
	c0.461,0,0.006,0.676,0,0.682c0.326-0.337,0.322,0.734,1.131,0.734c0.316,0-1.177-3.086-1.273-3.383
	c-0.107-0.33-1.854-5.991,0.681-4.225c-0.073-0.05,1.517-0.443,1.587-0.813c0.177-0.93-2.437-0.331-2.437,0.367
	c0,0.071-2.606-0.442-1.784-2.15c0.455-0.938,1.639-2.36-0.056-2.622c0.458,0.073,0.397-0.319,0.397-0.684
	c0-0.282-0.455,0.456-0.502,0.22c-0.175-0.891,0.187-0.787-0.235-1.819c0.351,0.889,1.135,0.762,1.135,2.177
	c0.207-0.011,0.32-0.151,0.339-0.42c0.095,0.328,0.095,0.661,0,0.998c0.003-0.018,0.821-1.81,1.189-1.81
	c-0.932,0-1.726-1.417-1.529-2.073c-0.325,1.11,4.319-0.895,4.408-0.84c0.089,0.055-2.643-0.911-3.084-1.313
	c-0.037,0.291-0.146,0.896-0.134,0.997c-0.143-1.121-0.426-1.975,0.989-1.155c-0.159-0.093,0.744-1.544,0.635-1.727
	c-0.43-0.722-2.893-1.101-3.707-2.069c-0.941-1.118-2.043-2.462-2.614-3.827c0.022,0.054-0.716-2.924-1.281-2.317
	c-1.146,1.256-3.049-1.776-3.169-2.547c-0.068-0.432,1.019-6.692-0.582-5.395c-1.152,0.934-2.645-0.672-2.96-0.449
	c0.205,0.55,0.085,0.878-0.361,0.987c-1.724-0.691-0.103-3.952,0.332-1.959c0.087,0.409,3.068-0.116,3.368-0.234
	c-0.152,0.06-0.106,0.736-0.168,0.812c0.618-0.752,1.33,1.17,1.926,1.391c-0.434-0.161,3.066,1.556,2.188,0.557
	c-0.814-0.925-1.898-3.402-0.829-4.491c-1.402,1.422-0.852-6.167-1.983-5.899c-0.312,0.071-2.391-4.158-1.784-4.667
	c-0.68,0.573-1.59,0.394-2.521,0.394c-0.117-0.254-0.023-0.437,0.257-0.555c-0.441,0.007-0.65-2.477-1.617-1.961
	c0.331-0.174-0.374-1.099-0.424-1.207c0.142,0.307,1.663,1.464,1.982,1.887c0.073,0.098-0.414-1.987-0.061-1.934
	c-3.837-0.582-1.344-3.688-0.76-5.308c0.048-0.129-1.707,0.458-1.717,0.433c0.232,0.612-1.412,2.003-0.915,2.322
	c-0.229-0.146-1.273-0.262-1.642-0.262c0.01,0.292,0.095,0.562,0.255,0.812c0,0.507-2.979-0.881-2.965-0.897
	c-0.518,0.521,0.862,0.92,0.938,1.246c-0.189,0.039-0.361,0.115-0.515,0.23c0.322,0.552,2.841,1.062,2.905,1.023
	c-1.023,0.633-2.817-0.827-3.343,0.262c0.795-1.677-1.63-1.267-1.16-2.545c0.748-2.082-1.838-1.364-2.862-1.364
	c-0.254,0,1.466-1.063,1.773-0.705c-0.238-0.479-1.571-1.177-1.858-1.341c0.473,0.27,0.863-0.578,1.586,0.473
	c0.016,0.022,0.566-0.789,0.581-0.668c0.067,0.578,0.01,1.051,0.41,1.586c-0.338-0.453,1.761-0.843,1.898-0.892
	c0.959-0.342-5.547-2.203-5.429-2.107c-0.985-0.792-0.251-1.209-0.645-2.131c-0.405-0.946-1.905-0.806-2.198-1.294
	c-0.882-1.466-3.306,0.199-3.229,0.655c0.245,1.348-1.938,1.222-1.669,0.524c0.146-0.378,2.169-0.171,0.874-1.206
	c0.13,0.104,0.854,0.024,1.005-0.154c0.305-0.359-3.855-2.046-4.206-2.235c0.011,0.006-2.483-1.032-2.004-1.181
	c-2.349,0.726-0.093,2.081-0.684,2.883c-0.249,0.338-4.047-0.753-4.224-0.862c-0.688-0.427-1.673-3.564-0.263-2.911
	c0.448,0.208,3.211-0.754,1.733-1.441c0.307,0.142-1.138-1.133-1.18-0.25c0.017-0.345,0.148-1.39-0.358-1.624
	c-0.289-0.133-0.404,1.664-0.474,1.794c-0.876,1.607-3.507,0.19-2.254,2.557c2.4,4.537-2.386,1.811-2.535,3.373
	c0.282-2.932,2.719-3.691-0.681-4.777c-2.21-0.708-0.753-2.266-1.929-3.49c-2.236-2.328-4.926-4.745-4.645-8.366
	c0.027-0.361-1.922-0.122-1.049,0.681c0.75,0.702,0.814,1.541,0.48,2.465c0.029-0.079-0.639-1.286-1.047-1.286
	c1.062,0,0.631-0.678,0.227-1.102c-0.287,0.212-0.464,0.502-0.557,0.851c-0.006,0.038-0.018,0.072-0.037,0.094
	c0.008-0.035,0.027-0.061,0.037-0.094c0.036-0.208-0.131-0.576-0.773-0.299c0.769-0.331,1.096-1.071,0.172-1.47
	c-0.636-0.274,0.354,0.687,0.083,0.672c-0.456-0.025-1.103-0.38-1.383,0.034c0.376-0.554,0.669-0.916-0.433-1.152
	c0.579,0.123,2.711-0.269,1.332-1.179c0.63,0.421,0.742,0.33,0.879,1.391c0.427-0.115,0.738-0.386,0.934-0.813
	c0.795-0.568,0.693,1.962,1.473-1.389c0.232-0.997,1.943-1.551,0.367-2.177c0.472,0.186-3.097,0.931-2.973,0.892
	c-2.124,0.67-3.92,1.286-6.316,0.604c-2.055-0.584-1.327,0.187-2.911,1.409c1.927-1.486,9.879,9.374,10.925,10.767
	c2,2.662,4.232,5.008,5.432,8.16c0.668,1.757,0.867,2.78,0.037,4.548c-0.701,1.494-2.984,0.384-3.063,0.88
	c-0.3,1.855,2.86,4.123,4.365,3.429c-2.218,1.021-0.628,2.372,1.105,1.68c-2.233,0.882,2.989,6.854,4.021,7.24
	c0.043,0.016,1.057-4.537,1.948-4.584c2.663-0.139,3.443-1.198,5.528-2.656c-0.748,0.517-1.544,2.294-2.889,3.043
	c-1.813,1.011-2.422-0.695-3.032,1.941c-0.232,1.009-1.558,2.168-1.558,3.094c0,1.757,4.675,5.985,5.699,7.202
	c1.822,2.161,3.745,4.26,5.503,6.473c2.147,2.703,4.14,5.54,6.165,8.333c1.697,2.34,1.966,5.912,3.636,7.904
	c1.011,1.202,3.586-0.252,4.335-0.944c1.097-1.011-1.302-2.001-1.041-2.685c0.061-0.16-4.95-6.666-5.521-7.151
	c1.312,1.113,8.962,7.595,9.918,4.955c0.177-0.501-2.441-1.515-2.422-1.534c0.839-0.778-0.524-1.243-0.849-0.815
	c0.188-0.249,0.636-0.56-0.042-0.56c0.821,0,1.189-1.52,1.189,0.431c0.055-0.251,0.135-0.494,0.229-0.733
	c0.018-0.149,0.068-0.3,0.195-0.447c-0.075,0.146-0.137,0.296-0.195,0.447c-0.079,0.644,0.706,1.238,1.259,1.166
	c-0.548,0.071,0.909,1.291,1.327,1.663c0.251,0.075,0.539-0.062,0.824-0.26c0.186-0.297,0.504-0.529,0.962-0.621
	c-0.257,0.052-0.605,0.373-0.962,0.621c-0.306,0.488-0.25,1.154,0.144,1.664c-1.27-1.636-3.119,0.262-0.682,1.769
	c0.002,0,0.005,0,0.007,0c-0.013-0.06,3.074-1.195,3.312-1.374c-1.692,1.25-2.285,1.391-3.312,1.374c0,0-0.004,0.002-0.003,0.002
	c-0.002-0.001-0.003-0.001-0.004-0.002c-0.399-0.007-0.859-0.035-1.483-0.035c-0.408,0-0.896,3.445-0.812,3.225
	c0.52-1.379,2.635-0.359,3.487,0.432c0.047,0.043,1.914-2.262,1.244-2.483c2.212,0.732-0.74,8.148,1.795,7.823
	c-0.066,0.008-1.481,0.123-1.172,0.3c1.168,0.667,0.682,2.433-1.1,2.168c-1.975-0.294-0.099-1.669-1.019-2.99
	c-0.572-0.817-2.1-1.874-2.899-3.174c-0.547-0.887-1.903-0.799-1.994-0.22c0.019,0.119,0.031,0.238,0.081,0.356
	c-0.078-0.133-0.098-0.252-0.081-0.356c-0.033-0.217-0.033-0.436,0.038-0.657c-0.402,2.078-1.49,1.387,0.375,3.874
	c1.15,1.533,2.172,3.164,3.259,4.742c1.979,2.876,3.219,5.626,4.46,8.836c0.485,1.255-0.257,5.375,1.938,4.07
	c0.817-0.487,2.144-1.945,2.894-0.966c-0.712-0.921,4.613-4.358,6.289-2.36c0.079,0.095-4.591,2.963,0.207,2.512
	c0.412-0.039,2.334,1.408,2.822,2.058c0.065,0.062,0.113,0.133,0.113,0.229c0-0.054-0.042-0.133-0.113-0.229
	c-0.661-0.608-4.24,0.39-3.793,1.378c-0.243-0.536-2.583,0.521-3.351,1.083c0.228-0.167,0.85,0.718,0.333,0.598
	c-1.582-0.368-1.11-2.506-0.766-3.384c0.229-0.582-3.445-1.311-3.95-0.417c-0.929,1.641,3.118,7.81,3.886,9.393
	c1.129,2.329,1.396,4.484,2.176,6.828l17.56-12.613C275.536,97.071,275.479,96.775,275.438,96.439z"/>
</svg>
