<svg xmlns="http://www.w3.org/2000/svg">
<defs>
<font
   horiz-adv-x="2048"
   id="font3">
<!-- Arial(R) Trademark of The Monotype Corporation plc registered in the US Pat &amp; TM Off. and elsewhere. -->
<!-- Copyright: Copyright 2007 Adobe System Incorporated. All rights reserved. -->
<font-face
   font-family="Arial-BoldMT"
   units-per-em="2048"
   underline-position="-217"
   underline-thickness="215"
   id="font-face5" />
<missing-glyph
   horiz-adv-x="1536"
   d="M256,0l0,1280l1024,0l0,-1280M288,32l960,0l0,1216l-960,0z"
   id="missing-glyph7" />
<glyph
   unicode=" "
   horiz-adv-x="569"
   id="glyph9" />
<glyph
   unicode="!"
   horiz-adv-x="682"
   d="M257,378l-73,744l0,344l304,0l0,-344l-72,-744M196,0l0,281l281,0l0,-281z"
   id="glyph11" />
<glyph
   unicode="&quot;"
   horiz-adv-x="971"
   d="M165,945l-53,273l0,248l306,0l0,-248l-46,-273M616,945l-53,273l0,248l306,0l0,-248l-46,-273z"
   id="glyph13" />
<glyph
   unicode="#"
   horiz-adv-x="1139"
   d="M154,365l-136,0l0,220l180,0l60,295l-240,0l0,221l285,0l79,390l224,0l-79,-390l221,0l77,390l232,0l-80,-390l138,0l0,-221l-183,0l-60,-295l243,0l0,-220l-288,0l-79,-390l-223,0l77,390l-222,0l-79,-390l-226,0M483,880l-59,-295l222,0l58,295z"
   id="glyph15" />
<glyph
   unicode="$"
   horiz-adv-x="1139"
   d="M489,217l0,419C358,673 263,730 202,806C141,881 110,973 110,1081C110,1190 145,1282 214,1357C283,1431 374,1474 489,1485l0,99l145,0l0,-99C740,1472 824,1436 887,1377C950,1317 990,1237 1007,1137l-253,-33C739,1183 699,1236 634,1264l0,-391C794,830 903,774 961,705C1019,636 1048,547 1048,439C1048,318 1012,217 939,134C866,51 764,1 634,-18l0,-187l-145,0l0,182C374,-9 280,34 208,106C136,178 90,280 70,411l261,28C342,386 362,340 391,301C420,262 453,234 489,217M489,1267C450,1254 418,1231 395,1199C372,1167 360,1132 360,1093C360,1058 371,1025 392,995C413,964 446,940 489,921M634,203C684,212 725,236 756,273C787,310 803,353 803,403C803,448 790,486 764,519C737,551 694,576 634,593z"
   id="glyph17" />
<glyph
   unicode="%"
   horiz-adv-x="1821"
   d="M89,1104C89,1235 118,1333 176,1396C233,1459 311,1491 410,1491C512,1491 592,1460 650,1397C707,1334 736,1236 736,1104C736,973 707,875 650,812C592,749 514,717 415,717C313,717 233,749 176,812C118,875 89,972 89,1104M308,1106C308,1011 319,947 341,914C358,890 381,878 410,878C440,878 463,890 480,914C501,947 512,1011 512,1106C512,1201 501,1265 480,1297C463,1322 440,1334 410,1334C381,1334 358,1322 341,1298C319,1265 308,1201 308,1106M624,-56l-208,0l781,1547l202,0M1078,329C1078,460 1107,558 1165,621C1222,684 1301,716 1401,716C1502,716 1581,684 1639,621C1696,558 1725,460 1725,329C1725,197 1696,99 1639,36C1581,-27 1503,-59 1404,-59C1302,-59 1222,-27 1165,36C1107,99 1078,197 1078,329M1297,330C1297,235 1308,171 1330,139C1347,114 1370,102 1399,102C1429,102 1452,114 1468,138C1490,171 1501,235 1501,330C1501,425 1490,489 1469,522C1452,546 1429,558 1399,558C1369,558 1346,546 1330,522C1308,489 1297,425 1297,330z"
   id="glyph19" />
<glyph
   unicode="&amp;"
   horiz-adv-x="1479"
   d="M1446,179l-170,-217C1193,3 1113,59 1036,130C977,77 914,37 847,12C780,-13 701,-26 609,-26C426,-26 289,25 197,128C126,207 90,299 90,402C90,496 118,581 174,656C230,731 314,796 425,851C375,910 337,967 312,1021C287,1074 274,1125 274,1173C274,1262 310,1337 381,1399C452,1460 553,1491 684,1491C811,1491 910,1459 981,1394C1052,1329 1088,1250 1088,1157C1088,1098 1070,1041 1035,988C1000,935 928,874 821,807l204,-269C1049,581 1070,636 1087,705l254,-58C1316,557 1294,491 1275,450C1256,408 1236,373 1215,345C1246,316 1287,284 1337,249C1386,214 1423,190 1446,179M681,976l76,58C813,1077 841,1120 841,1163C841,1199 828,1230 801,1255C774,1280 737,1293 691,1293C646,1293 611,1282 586,1260C561,1237 548,1211 548,1182C548,1147 569,1105 612,1056M571,671C506,638 458,599 426,553C394,507 378,460 378,412C378,351 398,302 438,264C477,225 530,206 597,206C641,206 683,215 724,232C765,249 809,278 857,318z"
   id="glyph21" />
<glyph
   unicode="'"
   horiz-adv-x="487"
   d="M145,945l-53,273l0,248l306,0l0,-248l-46,-273z"
   id="glyph23" />
<glyph
   unicode="("
   horiz-adv-x="682"
   d="M613,-431l-193,0C318,-277 240,-117 187,49C134,215 107,376 107,531C107,724 140,906 206,1078C263,1227 336,1365 424,1491l192,0C525,1289 462,1117 428,976C393,834 376,684 376,525C376,416 386,304 407,189C427,74 455,-35 490,-138C513,-206 554,-304 613,-431z"
   id="glyph25" />
<glyph
   unicode=")"
   horiz-adv-x="682"
   d="M69,-431C124,-312 163,-221 186,-158C209,-95 230,-22 249,61C268,144 283,222 292,297C301,371 306,447 306,525C306,684 289,834 255,976C221,1117 158,1289 67,1491l191,0C359,1348 437,1196 493,1035C548,874 576,711 576,546C576,407 554,257 510,98C460,-81 378,-257 263,-431z"
   id="glyph27" />
<glyph
   unicode="*"
   horiz-adv-x="797"
   d="M245,792l-151,117C142,963 192,1015 244,1064C265,1084 278,1097 283,1102C266,1105 219,1116 140,1135C83,1149 46,1159 28,1166l59,176C174,1307 252,1268 321,1225C305,1334 297,1422 297,1491l178,0C475,1442 466,1353 448,1223C461,1228 490,1241 534,1262C594,1289 649,1313 700,1332l53,-181C679,1134 593,1118 496,1102l120,-135C640,940 659,917 673,900l-153,-101l-135,223C344,950 298,873 245,792z"
   id="glyph29" />
<glyph
   unicode="+"
   horiz-adv-x="1196"
   d="M469,211l0,381l-384,0l0,263l384,0l0,381l256,0l0,-381l385,0l0,-263l-385,0l0,-381z"
   id="glyph31" />
<glyph
   unicode=","
   horiz-adv-x="569"
   d="M140,281l281,0l0,-201C421,-1 414,-65 400,-112C386,-159 360,-202 321,-239C282,-276 232,-306 172,-327l-55,116C174,-192 214,-167 238,-134C262,-101 275,-57 276,0l-136,0z"
   id="glyph33" />
<glyph
   unicode="-"
   horiz-adv-x="682"
   d="M115,391l0,281l552,0l0,-281z"
   id="glyph35" />
<glyph
   unicode="."
   horiz-adv-x="569"
   d="M147,0l0,281l281,0l0,-281z"
   id="glyph37" />
<glyph
   unicode="/"
   horiz-adv-x="569"
   d="M-3,-25l363,1516l211,0l-367,-1516z"
   id="glyph39" />
<glyph
   unicode="0"
   horiz-adv-x="1139"
   d="M562,1472C704,1472 815,1421 895,1320C990,1200 1038,1001 1038,723C1038,446 990,246 894,125C815,25 704,-25 562,-25C419,-25 304,30 217,140C130,249 86,445 86,726C86,1002 134,1201 230,1322C309,1422 420,1472 562,1472M562,1239C528,1239 498,1228 471,1207C444,1185 424,1146 409,1090C390,1017 380,895 380,723C380,551 389,433 406,369C423,304 445,261 472,240C498,219 528,208 562,208C596,208 626,219 653,241C680,262 700,301 715,357C734,429 744,551 744,723C744,895 735,1013 718,1078C701,1142 679,1185 653,1207C626,1228 596,1239 562,1239z"
   id="glyph41" />
<glyph
   unicode="1"
   horiz-adv-x="1139"
   d="M806,0l-281,0l0,1059C422,963 301,892 162,846l0,255C235,1125 315,1171 401,1238C487,1305 546,1383 578,1472l228,0z"
   id="glyph43" />
<glyph
   unicode="2"
   horiz-adv-x="1139"
   d="M1036,261l0,-261l-985,0C62,99 94,192 147,281C200,369 306,486 463,632C590,750 667,830 696,872C735,930 754,987 754,1044C754,1107 737,1155 704,1189C670,1222 623,1239 564,1239C505,1239 459,1221 424,1186C389,1151 369,1092 364,1010l-280,28C101,1193 153,1304 241,1371C329,1438 439,1472 571,1472C716,1472 829,1433 912,1355C995,1277 1036,1180 1036,1064C1036,998 1024,935 1001,876C977,816 939,753 888,688C854,645 793,582 704,501C615,420 559,366 536,339C512,312 493,286 478,261z"
   id="glyph45" />
<glyph
   unicode="3"
   horiz-adv-x="1139"
   d="M77,389l272,33C358,353 381,300 419,263C457,226 503,208 557,208C615,208 664,230 704,274C743,318 763,377 763,452C763,523 744,579 706,620C668,661 622,682 567,682C531,682 488,675 438,661l31,229C545,888 603,905 643,940C683,975 703,1021 703,1079C703,1128 688,1168 659,1197C630,1226 591,1241 542,1241C494,1241 453,1224 419,1191C385,1158 364,1109 357,1045l-259,44C116,1178 143,1249 180,1302C216,1355 267,1396 332,1427C397,1457 469,1472 550,1472C688,1472 799,1428 882,1340C951,1268 985,1187 985,1096C985,967 915,865 774,788C858,770 925,730 976,667C1026,604 1051,529 1051,440C1051,311 1004,202 910,111C816,20 699,-25 559,-25C426,-25 316,13 229,90C142,166 91,266 77,389z"
   id="glyph47" />
<glyph
   unicode="4"
   horiz-adv-x="1139"
   d="M638,0l0,295l-600,0l0,246l636,931l236,0l0,-930l182,0l0,-247l-182,0l0,-295M638,542l0,501l-337,-501z"
   id="glyph49" />
<glyph
   unicode="5"
   horiz-adv-x="1139"
   d="M91,377l280,29C379,343 403,293 442,256C481,219 527,200 578,200C637,200 686,224 727,272C768,319 788,391 788,487C788,577 768,645 728,690C687,735 635,757 570,757C489,757 417,721 353,650l-228,33l144,763l743,0l0,-263l-530,0l-44,-249C501,965 565,981 630,981C755,981 860,936 947,845C1034,754 1077,637 1077,492C1077,371 1042,264 972,169C877,40 744,-25 575,-25C440,-25 329,11 244,84C159,157 108,254 91,377z"
   id="glyph51" />
<glyph
   unicode="6"
   horiz-adv-x="1139"
   d="M1039,1107l-272,-30C760,1133 743,1174 715,1201C687,1228 651,1241 606,1241C547,1241 497,1214 456,1161C415,1108 389,997 378,828C448,911 535,952 639,952C756,952 857,907 941,818C1024,729 1066,613 1066,472C1066,322 1022,202 934,111C846,20 733,-25 595,-25C447,-25 325,33 230,148C135,263 87,451 87,713C87,982 137,1175 236,1294C335,1413 464,1472 623,1472C734,1472 827,1441 900,1379C973,1316 1019,1226 1039,1107M402,494C402,403 423,332 465,283C507,233 555,208 609,208C661,208 704,228 739,269C774,310 791,376 791,469C791,564 772,634 735,679C698,723 651,745 595,745C541,745 495,724 458,682C421,639 402,577 402,494z"
   id="glyph53" />
<glyph
   unicode="7"
   horiz-adv-x="1139"
   d="M87,1185l0,261l961,0l0,-204C969,1164 888,1052 806,906C724,760 662,605 619,441C576,276 554,129 555,0l-271,0C289,203 331,409 410,620C489,831 594,1019 726,1185z"
   id="glyph55" />
<glyph
   unicode="8"
   horiz-adv-x="1139"
   d="M328,791C255,822 203,864 170,918C137,971 120,1030 120,1094C120,1203 158,1294 235,1365C311,1436 419,1472 560,1472C699,1472 808,1436 885,1365C962,1294 1000,1203 1000,1094C1000,1026 982,966 947,913C912,860 862,819 798,791C879,758 941,711 984,648C1026,585 1047,513 1047,431C1047,296 1004,186 918,101C831,16 716,-26 573,-26C440,-26 329,9 240,79C135,162 83,275 83,419C83,498 103,571 142,638C181,704 243,755 328,791M386,1074C386,1018 402,974 434,943C465,912 507,896 560,896C613,896 656,912 688,944C720,975 736,1019 736,1075C736,1128 720,1170 689,1202C657,1233 615,1249 563,1249C509,1249 466,1233 434,1201C402,1169 386,1127 386,1074M360,446C360,369 380,308 420,265C459,222 509,200 568,200C626,200 674,221 712,263C750,304 769,364 769,443C769,512 750,567 711,609C672,650 623,671 564,671C495,671 444,647 411,600C377,553 360,501 360,446z"
   id="glyph57" />
<glyph
   unicode="9"
   horiz-adv-x="1139"
   d="M93,339l272,30C372,314 389,273 417,246C445,219 482,206 528,206C586,206 635,233 676,286C717,339 743,450 754,618C683,536 595,495 489,495C374,495 274,540 191,629C107,718 65,833 65,976C65,1125 109,1245 198,1336C286,1427 398,1472 535,1472C684,1472 806,1415 901,1300C996,1185 1044,995 1044,732C1044,464 994,271 895,152C796,33 666,-26 507,-26C392,-26 300,5 229,66C158,127 113,218 93,339M729,953C729,1044 708,1114 667,1164C625,1214 577,1239 522,1239C470,1239 427,1219 393,1178C358,1137 341,1069 341,976C341,881 360,812 397,768C434,723 481,701 537,701C591,701 637,722 674,765C711,808 729,870 729,953z"
   id="glyph59" />
<glyph
   unicode=":"
   horiz-adv-x="682"
   d="M201,781l0,281l281,0l0,-281M201,0l0,281l281,0l0,-281z"
   id="glyph61" />
<glyph
   unicode=";"
   horiz-adv-x="682"
   d="M193,781l0,281l281,0l0,-281M193,281l281,0l0,-201C474,-1 467,-65 453,-112C439,-159 413,-202 374,-239C335,-276 285,-306 225,-327l-55,116C227,-192 267,-166 291,-133C315,-100 328,-55 329,0l-136,0z"
   id="glyph63" />
<glyph
   unicode="&lt;"
   horiz-adv-x="1196"
   d="M1100,167l-1005,437l0,242l1005,435l0,-285l-701,-268l701,-278z"
   id="glyph65" />
<glyph
   unicode="="
   horiz-adv-x="1196"
   d="M85,816l0,258l1025,0l0,-258M85,372l0,259l1025,0l0,-259z"
   id="glyph67" />
<glyph
   unicode="&gt;"
   horiz-adv-x="1196"
   d="M95,166l0,283l702,276l-702,273l0,281l1006,-435l0,-240z"
   id="glyph69" />
<glyph
   unicode="?"
   horiz-adv-x="1251"
   d="M751,378l-255,0C495,415 495,437 495,445C495,528 509,596 536,649C563,702 618,762 700,829C782,896 831,939 847,960C872,993 884,1029 884,1068C884,1123 862,1170 819,1209C775,1248 716,1267 642,1267C571,1267 511,1247 463,1206C415,1165 382,1103 364,1020l-258,32C113,1171 164,1273 259,1356C353,1439 477,1481 630,1481C791,1481 920,1439 1015,1355C1110,1270 1158,1172 1158,1060C1158,998 1141,939 1106,884C1071,829 996,753 881,658C822,609 785,569 771,539C756,509 750,455 751,378M496,0l0,281l281,0l0,-281z"
   id="glyph71" />
<glyph
   unicode="@"
   horiz-adv-x="1997"
   d="M1777,19l213,0C1923,-116 1821,-222 1683,-299C1525,-387 1332,-431 1105,-431C885,-431 695,-394 535,-319C375,-245 256,-135 178,10C100,155 61,312 61,483C61,670 105,845 194,1007C283,1168 404,1290 558,1371C712,1452 888,1492 1086,1492C1254,1492 1403,1459 1534,1394C1665,1329 1765,1236 1834,1116C1903,995 1937,864 1937,721C1937,551 1885,397 1780,260C1649,87 1480,0 1275,0C1220,0 1178,10 1150,29C1122,48 1103,77 1094,114C1015,38 925,0 822,0C711,0 620,38 547,115C474,191 437,292 437,419C437,576 481,719 569,848C676,1005 812,1084 979,1084C1098,1084 1185,1039 1242,948l25,111l264,0l-151,-717C1371,297 1366,267 1366,254C1366,237 1370,225 1378,217C1385,208 1394,204 1405,204C1437,204 1478,223 1529,262C1597,313 1652,381 1694,466C1736,551 1757,640 1757,731C1757,895 1698,1032 1579,1143C1460,1253 1295,1308 1082,1308C901,1308 748,1271 623,1198C497,1124 402,1020 339,887C275,753 243,614 243,469C243,328 279,200 350,85C421,-30 520,-114 649,-167C777,-220 924,-247 1089,-247C1248,-247 1385,-225 1500,-180C1615,-136 1707,-70 1777,19M696,430C696,345 713,283 748,243C782,203 824,183 875,183C913,183 949,192 982,211C1007,224 1032,245 1057,274C1092,315 1123,374 1149,452C1174,530 1187,603 1187,670C1187,745 1170,803 1135,844C1100,884 1055,904 1002,904C945,904 892,882 843,838C794,793 758,730 733,648C708,566 696,493 696,430z"
   id="glyph73" />
<glyph
   unicode="A"
   horiz-adv-x="1479"
   d="M1471,0l-322,0l-128,333l-586,0l-121,-333l-314,0l571,1466l313,0M926,580l-202,544l-198,-544z"
   id="glyph75" />
<glyph
   unicode="B"
   horiz-adv-x="1479"
   d="M150,1466l586,0C852,1466 939,1461 996,1452C1053,1442 1104,1422 1149,1391C1194,1360 1231,1320 1261,1269C1291,1218 1306,1160 1306,1097C1306,1028 1288,965 1251,908C1214,851 1163,808 1100,779C1189,753 1258,709 1306,646C1354,583 1378,510 1378,425C1378,358 1363,294 1332,231C1301,168 1258,117 1205,80C1151,42 1085,19 1006,10C957,5 838,1 649,0l-499,0M446,1222l0,-339l194,0C755,883 827,885 855,888C906,894 946,912 975,941C1004,970 1018,1008 1018,1055C1018,1100 1006,1137 981,1166C956,1194 918,1211 869,1217C840,1220 755,1222 616,1222M446,639l0,-392l274,0C827,247 894,250 923,256C967,264 1003,284 1031,315C1058,346 1072,387 1072,439C1072,483 1061,520 1040,551C1019,582 988,604 948,618C907,632 820,639 685,639z"
   id="glyph77" />
<glyph
   unicode="C"
   horiz-adv-x="1479"
   d="M1087,539l287,-91C1330,288 1257,169 1155,92C1052,14 922,-25 765,-25C570,-25 410,42 285,175C160,308 97,489 97,720C97,964 160,1154 286,1289C412,1424 578,1491 783,1491C962,1491 1108,1438 1220,1332C1287,1269 1337,1179 1370,1062l-293,-70C1060,1068 1024,1128 969,1172C914,1216 847,1238 768,1238C659,1238 571,1199 504,1121C436,1043 402,917 402,742C402,557 435,425 502,346C569,267 655,228 762,228C841,228 908,253 965,303C1022,353 1062,432 1087,539z"
   id="glyph79" />
<glyph
   unicode="D"
   horiz-adv-x="1479"
   d="M148,1466l541,0C811,1466 904,1457 968,1438C1054,1413 1128,1368 1189,1303C1250,1238 1297,1159 1329,1066C1361,972 1377,856 1377,719C1377,598 1362,494 1332,407C1295,300 1243,214 1175,148C1124,98 1054,59 967,31C902,10 814,0 705,0l-557,0M444,1218l0,-971l221,0C748,247 807,252 844,261C892,273 932,293 964,322C995,351 1021,398 1041,464C1061,529 1071,619 1071,732C1071,845 1061,932 1041,993C1021,1054 993,1101 957,1135C921,1169 875,1192 820,1204C779,1213 698,1218 577,1218z"
   id="glyph81" />
<glyph
   unicode="E"
   horiz-adv-x="1366"
   d="M149,0l0,1466l1087,0l0,-248l-791,0l0,-325l736,0l0,-247l-736,0l0,-399l819,0l0,-247z"
   id="glyph83" />
<glyph
   unicode="F"
   horiz-adv-x="1251"
   d="M151,0l0,1466l1005,0l0,-248l-709,0l0,-347l612,0l0,-248l-612,0l0,-623z"
   id="glyph85" />
<glyph
   unicode="G"
   horiz-adv-x="1593"
   d="M831,539l0,247l638,0l0,-584C1407,142 1317,89 1200,44C1082,-2 963,-25 842,-25C689,-25 555,7 441,72C327,136 241,228 184,348C127,467 98,597 98,738C98,891 130,1026 194,1145C258,1264 352,1355 475,1418C569,1467 686,1491 826,1491C1008,1491 1150,1453 1253,1377C1355,1300 1421,1195 1450,1060l-294,-55C1135,1077 1097,1134 1040,1176C983,1217 911,1238 826,1238C697,1238 594,1197 518,1115C441,1033 403,911 403,750C403,576 442,446 519,359C596,272 698,228 823,228C885,228 947,240 1010,265C1072,289 1125,318 1170,353l0,186z"
   id="glyph87" />
<glyph
   unicode="H"
   horiz-adv-x="1479"
   d="M150,0l0,1466l296,0l0,-577l580,0l0,577l296,0l0,-1466l-296,0l0,641l-580,0l0,-641z"
   id="glyph89" />
<glyph
   unicode="I"
   horiz-adv-x="569"
   d="M140,0l0,1466l296,0l0,-1466z"
   id="glyph91" />
<glyph
   unicode="J"
   horiz-adv-x="1139"
   d="M678,1466l295,0l0,-928C973,417 962,323 941,258C912,173 860,104 785,53C710,1 610,-25 487,-25C342,-25 231,16 153,97C75,178 36,296 35,453l279,32C317,401 330,342 351,307C383,254 432,228 497,228C563,228 610,247 637,285C664,322 678,400 678,519z"
   id="glyph93" />
<glyph
   unicode="K"
   horiz-adv-x="1479"
   d="M153,0l0,1466l296,0l0,-651l598,651l398,0l-552,-571l582,-895l-383,0l-403,688l-240,-245l0,-443z"
   id="glyph95" />
<glyph
   unicode="L"
   horiz-adv-x="1251"
   d="M157,0l0,1454l296,0l0,-1207l736,0l0,-247z"
   id="glyph97" />
<glyph
   unicode="M"
   horiz-adv-x="1706"
   d="M145,0l0,1466l443,0l266,-1000l263,1000l444,0l0,-1466l-275,0l0,1154l-291,-1154l-285,0l-290,1154l0,-1154z"
   id="glyph99" />
<glyph
   unicode="N"
   horiz-adv-x="1479"
   d="M152,0l0,1466l288,0l600,-979l0,979l275,0l0,-1466l-297,0l-591,956l0,-956z"
   id="glyph101" />
<glyph
   unicode="O"
   horiz-adv-x="1593"
   d="M89,724C89,873 111,999 156,1100C189,1175 235,1242 293,1301C350,1360 413,1404 482,1433C573,1472 679,1491 798,1491C1014,1491 1187,1424 1317,1290C1446,1156 1511,970 1511,731C1511,494 1447,309 1318,176C1189,42 1017,-25 802,-25C584,-25 411,42 282,175C153,308 89,491 89,724M394,734C394,568 432,442 509,357C586,271 683,228 801,228C919,228 1016,271 1092,356C1167,441 1205,568 1205,738C1205,906 1168,1031 1095,1114C1021,1197 923,1238 801,1238C679,1238 581,1196 506,1113C431,1029 394,903 394,734z"
   id="glyph103" />
<glyph
   unicode="P"
   horiz-adv-x="1366"
   d="M149,0l0,1466l475,0C804,1466 921,1459 976,1444C1060,1422 1130,1374 1187,1301C1244,1227 1272,1132 1272,1015C1272,925 1256,849 1223,788C1190,727 1149,679 1099,644C1048,609 997,585 945,574C874,560 772,553 638,553l-193,0l0,-553M445,1218l0,-416l162,0C724,802 802,810 841,825C880,840 911,864 934,897C956,930 967,968 967,1011C967,1064 951,1108 920,1143C889,1178 849,1199 801,1208C766,1215 695,1218 588,1218z"
   id="glyph105" />
<glyph
   unicode="Q"
   horiz-adv-x="1593"
   d="M1329,186C1402,134 1481,93 1566,62l-109,-209C1412,-134 1369,-115 1326,-92C1317,-87 1251,-44 1129,38C1033,-4 927,-25 810,-25C585,-25 408,41 281,174C153,307 89,493 89,733C89,972 153,1159 281,1292C409,1425 583,1491 802,1491C1019,1491 1192,1425 1319,1292C1446,1159 1510,972 1510,733C1510,606 1492,495 1457,399C1430,326 1388,255 1329,186M1091,353C1129,398 1158,452 1177,515C1196,578 1205,651 1205,733C1205,902 1168,1029 1093,1113C1018,1196 921,1238 800,1238C679,1238 582,1196 507,1112C432,1028 394,902 394,733C394,562 432,434 507,349C582,264 676,221 791,221C834,221 874,228 912,242C852,281 791,312 729,334l83,169C909,470 1002,420 1091,353z"
   id="glyph107" />
<glyph
   unicode="R"
   horiz-adv-x="1479"
   d="M150,0l0,1466l623,0C930,1466 1044,1453 1115,1427C1186,1400 1242,1353 1285,1286C1328,1219 1349,1142 1349,1055C1349,945 1317,854 1252,783C1187,711 1091,666 962,647C1026,610 1079,569 1121,524C1162,479 1218,400 1289,286l179,-286l-354,0l-214,319C824,433 772,505 744,535C716,564 686,585 655,596C624,607 574,612 506,612l-60,0l0,-612M446,846l219,0C807,846 896,852 931,864C966,876 994,897 1014,926C1034,955 1044,992 1044,1036C1044,1085 1031,1125 1005,1156C978,1186 941,1205 893,1213C869,1216 797,1218 677,1218l-231,0z"
   id="glyph109" />
<glyph
   unicode="S"
   horiz-adv-x="1366"
   d="M74,477l288,28C379,408 415,337 468,292C521,247 592,224 682,224C777,224 849,244 898,285C946,325 970,372 970,426C970,461 960,490 940,515C919,539 884,560 833,578C798,590 719,611 596,642C437,681 326,730 262,787C172,868 127,966 127,1082C127,1157 148,1227 191,1292C233,1357 294,1406 374,1440C453,1474 549,1491 662,1491C846,1491 985,1451 1078,1370C1171,1289 1219,1182 1224,1047l-296,-13C915,1109 888,1164 847,1197C805,1230 742,1246 659,1246C573,1246 506,1228 457,1193C426,1170 410,1140 410,1102C410,1067 425,1038 454,1013C491,982 582,949 726,915C870,881 977,846 1046,810C1115,773 1169,724 1208,661C1247,598 1266,520 1266,427C1266,343 1243,264 1196,191C1149,118 1083,63 998,28C913,-8 806,-26 679,-26C494,-26 351,17 252,103C153,188 93,313 74,477z"
   id="glyph111" />
<glyph
   unicode="T"
   horiz-adv-x="1251"
   d="M479,0l0,1218l-435,0l0,248l1165,0l0,-248l-434,0l0,-1218z"
   id="glyph113" />
<glyph
   unicode="U"
   horiz-adv-x="1479"
   d="M147,1466l296,0l0,-794C443,546 447,464 454,427C467,367 497,319 545,283C592,246 657,228 740,228C824,228 887,245 930,280C973,314 998,356 1007,406C1016,456 1020,539 1020,655l0,811l296,0l0,-770C1316,520 1308,396 1292,323C1276,250 1247,189 1204,139C1161,89 1103,49 1031,20C959,-10 865,-25 749,-25C609,-25 503,-9 431,24C358,56 301,98 259,150C217,201 189,255 176,312C157,396 147,520 147,684z"
   id="glyph115" />
<glyph
   unicode="V"
   horiz-adv-x="1366"
   d="M523,0l-524,1466l321,0l371,-1085l359,1085l314,0l-525,-1466z"
   id="glyph117" />
<glyph
   unicode="W"
   horiz-adv-x="1933"
   d="M357,0l-350,1466l303,0l221,-1007l268,1007l352,0l257,-1024l225,1024l298,0l-356,-1466l-314,0l-292,1096l-291,-1096z"
   id="glyph119" />
<glyph
   unicode="X"
   horiz-adv-x="1366"
   d="M0,0l501,765l-454,701l346,0l294,-471l288,471l343,0l-456,-712l501,-754l-357,0l-325,507l-326,-507z"
   id="glyph121" />
<glyph
   unicode="Y"
   horiz-adv-x="1366"
   d="M534,0l0,617l-537,849l347,0l345,-580l338,580l341,0l-539,-851l0,-615z"
   id="glyph123" />
<glyph
   unicode="Z"
   horiz-adv-x="1251"
   d="M22,0l0,267l770,951l-683,0l0,248l1073,0l0,-230l-803,-989l834,0l0,-247z"
   id="glyph125" />
<glyph
   unicode="["
   horiz-adv-x="682"
   d="M146,-413l0,1879l498,0l0,-221l-231,0l0,-1437l231,0l0,-221z"
   id="glyph127" />
<glyph
   unicode="\"
   horiz-adv-x="569"
   d="M-3,1491l207,0l367,-1516l-211,0z"
   id="glyph129" />
<glyph
   unicode="]"
   horiz-adv-x="682"
   d="M536,1466l0,-1879l-498,0l0,221l231,0l0,1439l-231,0l0,219z"
   id="glyph131" />
<glyph
   unicode="^"
   horiz-adv-x="1196"
   d="M115,692l376,799l223,0l366,-799l-284,0l-198,489l-197,-489z"
   id="glyph133" />
<glyph
   unicode="_"
   horiz-adv-x="1139"
   d="M-19,-405l0,182l1168,0l0,-182z"
   id="glyph135" />
<glyph
   unicode="`"
   horiz-adv-x="682"
   d="M495,1192l-177,0l-276,299l315,0z"
   id="glyph137" />
<glyph
   unicode="a"
   horiz-adv-x="1139"
   d="M357,738l-255,46C131,887 180,963 250,1012C320,1061 424,1086 562,1086C687,1086 781,1071 842,1042C903,1012 947,974 972,929C997,883 1009,799 1009,677l-3,-328C1006,256 1011,187 1020,143C1029,98 1045,51 1070,0l-278,0C785,19 776,46 765,83C760,100 757,111 755,116C707,69 656,34 601,11C546,-12 488,-24 426,-24C317,-24 231,6 168,65C105,124 73,199 73,290C73,350 87,404 116,451C145,498 185,534 237,559C288,584 363,605 460,624C591,649 682,672 733,693l0,28C733,775 720,814 693,837C666,860 616,871 542,871C492,871 453,861 425,842C397,822 374,787 357,738M733,510C697,498 640,484 562,467C484,450 433,434 409,418C372,392 354,359 354,319C354,280 369,246 398,217C427,188 465,174 510,174C561,174 609,191 655,224C689,249 711,280 722,317C729,341 733,387 733,454z"
   id="glyph139" />
<glyph
   unicode="b"
   horiz-adv-x="1251"
   d="M135,0l0,1466l281,0l0,-528C503,1037 605,1086 724,1086C853,1086 960,1039 1045,946C1130,852 1172,717 1172,542C1172,361 1129,221 1043,123C956,25 851,-24 728,-24C667,-24 608,-9 549,22C490,52 439,97 396,156l0,-156M414,554C414,444 431,363 466,310C515,235 579,198 660,198C722,198 775,225 819,278C862,331 884,414 884,528C884,649 862,737 818,791C774,844 718,871 649,871C582,871 526,845 481,793C436,740 414,661 414,554z"
   id="glyph141" />
<glyph
   unicode="c"
   horiz-adv-x="1139"
   d="M1073,748l-277,-50C787,753 766,795 733,823C700,851 657,865 604,865C534,865 478,841 437,793C395,744 374,663 374,550C374,424 395,335 438,283C480,231 537,205 608,205C661,205 705,220 739,251C773,281 797,333 811,407l276,-47C1058,233 1003,138 922,73C841,8 732,-24 595,-24C440,-24 316,25 224,123C131,221 85,357 85,530C85,705 131,842 224,940C317,1037 442,1086 600,1086C729,1086 832,1058 909,1003C985,947 1040,862 1073,748z"
   id="glyph143" />
<glyph
   unicode="d"
   horiz-adv-x="1251"
   d="M1121,0l-261,0l0,156C817,95 766,50 707,21C648,-9 588,-24 528,-24C406,-24 302,25 215,124C128,222 84,359 84,535C84,715 126,852 211,946C296,1039 403,1086 532,1086C651,1086 753,1037 840,938l0,528l281,0M371,554C371,441 387,359 418,308C463,235 527,198 608,198C673,198 728,226 773,281C818,336 841,418 841,527C841,649 819,737 775,791C731,844 675,871 606,871C539,871 484,845 439,792C394,739 371,659 371,554z"
   id="glyph145" />
<glyph
   unicode="e"
   horiz-adv-x="1139"
   d="M762,338l280,-47C1006,188 949,110 872,57C794,3 697,-24 580,-24C395,-24 259,36 170,157C100,254 65,376 65,523C65,699 111,837 203,937C295,1036 411,1086 552,1086C710,1086 835,1034 926,930C1017,825 1061,665 1057,450l-704,0C355,367 378,302 421,256C464,209 518,186 583,186C627,186 664,198 694,222C724,246 747,285 762,338M778,622C776,703 755,765 715,808C675,850 626,871 569,871C508,871 457,849 417,804C377,759 357,699 358,622z"
   id="glyph147" />
<glyph
   unicode="f"
   horiz-adv-x="682"
   d="M24,1062l156,0l0,80C180,1231 190,1298 209,1342C228,1386 263,1422 314,1450C365,1477 429,1491 507,1491C587,1491 665,1479 742,1455l-38,-196C659,1270 616,1275 575,1275C534,1275 505,1266 488,1247C470,1228 461,1191 461,1137l0,-75l210,0l0,-221l-210,0l0,-841l-281,0l0,841l-156,0z"
   id="glyph149" />
<glyph
   unicode="g"
   horiz-adv-x="1251"
   d="M121,-70l321,-39C447,-146 460,-172 479,-186C506,-206 548,-216 605,-216C678,-216 733,-205 770,-183C795,-168 813,-145 826,-112C835,-89 839,-46 839,17l0,155C755,57 649,0 521,0C378,0 265,60 182,181C117,276 84,395 84,537C84,715 127,851 213,945C298,1039 405,1086 532,1086C663,1086 772,1028 857,913l0,149l263,0l0,-953C1120,-16 1110,-110 1089,-172C1068,-234 1039,-283 1002,-318C965,-353 915,-381 853,-401C790,-421 711,-431 616,-431C436,-431 308,-400 233,-338C158,-277 120,-199 120,-104C120,-95 120,-83 121,-70M372,553C372,440 394,358 438,306C481,253 535,227 599,227C668,227 726,254 773,308C820,361 844,441 844,546C844,656 821,738 776,791C731,844 673,871 604,871C537,871 481,845 438,793C394,740 372,660 372,553z"
   id="glyph151" />
<glyph
   unicode="h"
   horiz-adv-x="1251"
   d="M427,1466l0,-539C518,1033 626,1086 752,1086C817,1086 875,1074 927,1050C979,1026 1018,995 1045,958C1071,921 1089,879 1099,834C1108,789 1113,718 1113,623l0,-623l-281,0l0,561C832,672 827,743 816,773C805,803 787,827 760,845C733,862 699,871 658,871C611,871 570,860 533,837C496,814 470,780 453,735C436,689 427,621 427,532l0,-532l-281,0l0,1466z"
   id="glyph153" />
<glyph
   unicode="i"
   horiz-adv-x="569"
   d="M147,1206l0,260l281,0l0,-260M147,0l0,1062l281,0l0,-1062z"
   id="glyph155" />
<glyph
   unicode="j"
   horiz-adv-x="569"
   d="M141,1206l0,260l281,0l0,-260M422,1062l0,-1029C422,-102 413,-198 396,-253C378,-309 344,-353 294,-384C243,-415 179,-431 101,-431C73,-431 43,-428 11,-423C-22,-418 -57,-411 -94,-401l49,240C-32,-164 -19,-166 -7,-167C4,-169 15,-170 25,-170C54,-170 77,-164 96,-151C114,-139 126,-124 132,-107C138,-90 141,-38 141,49l0,1013z"
   id="glyph157" />
<glyph
   unicode="k"
   horiz-adv-x="1139"
   d="M137,0l0,1466l281,0l0,-778l329,374l346,0l-363,-388l389,-674l-303,0l-267,477l-131,-137l0,-340z"
   id="glyph159" />
<glyph
   unicode="l"
   horiz-adv-x="569"
   d="M147,0l0,1466l281,0l0,-1466z"
   id="glyph161" />
<glyph
   unicode="m"
   horiz-adv-x="1821"
   d="M126,1062l259,0l0,-145C478,1030 588,1086 716,1086C784,1086 843,1072 893,1044C943,1016 984,974 1016,917C1063,974 1113,1016 1167,1044C1221,1072 1279,1086 1340,1086C1418,1086 1484,1070 1538,1039C1592,1007 1632,960 1659,899C1678,854 1688,780 1688,679l0,-679l-281,0l0,607C1407,712 1397,780 1378,811C1352,851 1312,871 1258,871C1219,871 1182,859 1147,835C1112,811 1087,776 1072,730C1057,683 1049,610 1049,510l0,-510l-281,0l0,582C768,685 763,752 753,782C743,812 728,834 707,849C686,864 657,871 621,871C578,871 539,859 504,836C469,813 445,779 430,735C415,691 407,618 407,516l0,-516l-281,0z"
   id="glyph163" />
<glyph
   unicode="n"
   horiz-adv-x="1251"
   d="M1113,0l-281,0l0,542C832,657 826,731 814,765C802,798 783,824 756,843C729,862 696,871 658,871C609,871 566,858 527,831C488,804 462,769 448,725C433,681 426,600 426,481l0,-481l-281,0l0,1062l261,0l0,-156C499,1026 615,1086 756,1086C818,1086 875,1075 926,1053C977,1030 1016,1002 1043,967C1069,932 1087,893 1098,849C1108,805 1113,742 1113,660z"
   id="glyph165" />
<glyph
   unicode="o"
   horiz-adv-x="1251"
   d="M82,546C82,639 105,730 151,817C197,904 262,971 347,1017C431,1063 525,1086 629,1086C790,1086 921,1034 1024,930C1127,825 1178,693 1178,534C1178,373 1126,240 1023,135C919,29 788,-24 631,-24C534,-24 441,-2 353,42C264,86 197,151 151,236C105,321 82,424 82,546M370,531C370,426 395,345 445,289C495,233 557,205 630,205C703,205 765,233 815,289C864,345 889,426 889,533C889,637 864,717 815,773C765,829 703,857 630,857C557,857 495,829 445,773C395,717 370,636 370,531z"
   id="glyph167" />
<glyph
   unicode="p"
   horiz-adv-x="1251"
   d="M139,1062l262,0l0,-156C435,959 481,1003 539,1036C597,1069 661,1086 732,1086C855,1086 960,1038 1046,941C1132,844 1175,710 1175,537C1175,360 1132,222 1045,124C958,25 853,-24 730,-24C671,-24 618,-12 571,11C523,34 473,74 420,131l0,-535l-281,0M417,549C417,430 441,342 488,285C535,228 593,199 661,199C726,199 781,225 824,278C867,330 889,416 889,535C889,646 867,729 822,783C777,837 722,864 656,864C587,864 530,838 485,785C440,732 417,653 417,549z"
   id="glyph169" />
<glyph
   unicode="q"
   horiz-adv-x="1251"
   d="M841,-404l0,534C804,83 759,45 704,18C649,-10 590,-24 527,-24C406,-24 307,21 229,112C137,218 91,362 91,543C91,714 134,847 221,943C307,1038 414,1086 542,1086C613,1086 674,1071 726,1041C777,1011 823,966 863,905l0,157l259,0l0,-1466M850,544C850,653 828,734 784,787C739,840 684,866 617,866C549,866 492,839 447,785C401,731 378,645 378,528C378,411 400,327 444,276C488,224 542,198 607,198C672,198 728,227 777,285C826,343 850,429 850,544z"
   id="glyph171" />
<glyph
   unicode="r"
   horiz-adv-x="797"
   d="M416,0l-281,0l0,1062l261,0l0,-151C441,982 481,1029 517,1052C552,1075 593,1086 638,1086C702,1086 764,1068 823,1033l-87,-245C689,819 645,834 604,834C565,834 531,823 504,802C477,780 455,741 440,684C424,627 416,509 416,328z"
   id="glyph173" />
<glyph
   unicode="s"
   horiz-adv-x="1139"
   d="M48,303l282,43C342,291 366,250 403,222C440,193 491,179 557,179C630,179 684,192 721,219C746,238 758,263 758,294C758,315 751,333 738,347C724,360 693,373 644,384C417,434 274,480 213,521C129,578 87,658 87,760C87,852 123,929 196,992C269,1055 381,1086 534,1086C679,1086 787,1062 858,1015C929,968 977,898 1004,805l-265,-49C728,797 706,829 675,851C643,873 598,884 539,884C465,884 412,874 380,853C359,838 348,819 348,796C348,776 357,759 376,745C401,726 489,700 639,666C788,632 893,590 952,541C1011,491 1040,421 1040,332C1040,235 999,151 918,81C837,11 716,-24 557,-24C412,-24 298,5 214,64C129,123 74,202 48,303z"
   id="glyph175" />
<glyph
   unicode="t"
   horiz-adv-x="682"
   d="M634,1062l0,-224l-192,0l0,-428C442,323 444,273 448,259C451,244 460,232 473,223C486,214 501,209 520,209C546,209 584,218 633,236l24,-218C592,-10 518,-24 435,-24C384,-24 339,-15 298,2C257,19 228,41 209,68C190,95 176,131 169,177C163,210 160,276 160,375l0,463l-129,0l0,224l129,0l0,211l282,164l0,-375z"
   id="glyph177" />
<glyph
   unicode="u"
   horiz-adv-x="1251"
   d="M846,0l0,159C807,102 757,58 694,25C631,-8 564,-24 494,-24C423,-24 359,-8 302,23C245,54 204,98 179,155C154,212 141,290 141,390l0,672l281,0l0,-488C422,425 427,333 438,300C448,266 467,239 494,220C521,200 556,190 598,190C646,190 689,203 727,230C765,256 791,289 805,328C819,367 826,462 826,614l0,448l281,0l0,-1062z"
   id="glyph179" />
<glyph
   unicode="v"
   horiz-adv-x="1139"
   d="M439,0l-428,1062l295,0l200,-542l58,-181C579,385 589,415 593,430C602,460 612,490 623,520l202,542l289,0l-422,-1062z"
   id="glyph181" />
<glyph
   unicode="w"
   horiz-adv-x="1593"
   d="M345,0l-336,1062l273,0l199,-696l183,696l271,0l177,-696l203,696l277,0l-341,-1062l-270,0l-183,683l-180,-683z"
   id="glyph183" />
<glyph
   unicode="x"
   horiz-adv-x="1139"
   d="M12,0l383,547l-367,515l343,0l188,-292l198,292l330,0l-360,-503l393,-559l-345,0l-216,329l-218,-329z"
   id="glyph185" />
<glyph
   unicode="y"
   horiz-adv-x="1139"
   d="M14,1062l299,0l254,-754l248,754l291,0l-375,-1022l-67,-185C639,-207 616,-254 594,-287C571,-320 546,-346 517,-366C488,-387 452,-403 410,-414C367,-425 319,-431 266,-431C212,-431 159,-425 107,-414l-25,220C126,-203 166,-207 201,-207C266,-207 315,-188 346,-149C377,-111 401,-62 418,-3z"
   id="glyph187" />
<glyph
   unicode="z"
   horiz-adv-x="1024"
   d="M34,0l0,219l398,457C497,751 546,804 577,835C544,833 501,832 448,831l-375,-2l0,233l878,0l0,-199l-406,-468l-143,-155C480,245 528,247 547,247l435,0l0,-247z"
   id="glyph189" />
<glyph
   unicode="{"
   horiz-adv-x="797"
   d="M60,410l0,240C109,653 145,660 170,672C195,684 216,704 234,733C252,761 264,796 271,839C276,871 279,927 279,1006C279,1135 285,1226 297,1277C309,1328 331,1369 362,1400C393,1431 439,1455 499,1473C540,1485 604,1491 691,1491l53,0l0,-239C670,1252 623,1248 602,1240C581,1231 565,1219 555,1202C545,1185 540,1155 540,1114C540,1072 537,992 531,875C528,809 519,756 505,715C491,674 473,640 452,613C430,586 397,559 352,530C391,507 424,481 449,451C474,420 493,383 506,340C519,297 528,239 532,166C537,55 539,-15 539,-46C539,-90 544,-121 555,-138C566,-155 582,-168 604,-177C625,-186 672,-191 744,-191l0,-240l-53,0C601,-431 532,-424 484,-409C436,-395 396,-371 363,-338C330,-305 307,-263 296,-214C285,-165 279,-88 279,17C279,140 274,219 263,256C248,309 226,348 197,371C167,394 121,407 60,410z"
   id="glyph191" />
<glyph
   unicode="|"
   horiz-adv-x="573"
   d="M176,-431l0,1922l223,0l0,-1922z"
   id="glyph193" />
<glyph
   unicode="}"
   horiz-adv-x="797"
   d="M729,410C680,407 644,400 619,388C594,376 573,356 556,328C538,299 525,264 518,221C513,189 510,134 510,55C510,-74 504,-165 493,-216C481,-267 459,-308 428,-339C397,-370 351,-395 290,-413C249,-425 185,-431 98,-431l-53,0l0,240C116,-191 163,-186 185,-177C207,-168 223,-155 234,-138C244,-121 249,-93 250,-52C250,-11 253,66 258,181C261,250 270,306 285,348C300,389 319,425 344,454C368,483 399,508 437,530C388,562 352,593 329,624C298,668 276,724 265,792C258,839 252,941 249,1100C248,1150 244,1183 236,1200C227,1217 212,1230 191,1239C169,1248 120,1252 45,1252l0,239l53,0C188,1491 257,1484 305,1470C353,1456 393,1432 426,1399C459,1365 481,1324 493,1275C504,1226 510,1148 510,1043C510,921 515,841 525,804C540,751 562,713 592,690C622,667 668,653 729,650z"
   id="glyph195" />
<glyph
   unicode="~"
   horiz-adv-x="1196"
   d="M67,519l0,259C152,870 250,916 363,916C405,916 444,912 479,904C514,895 578,873 670,836C761,799 823,780 856,780C893,780 937,792 986,815C1035,838 1082,874 1129,924l0,-270C1098,622 1056,592 1001,564C946,536 889,522 830,522C797,522 764,526 733,534C701,542 651,561 582,591C479,636 399,658 340,658C247,658 156,612 67,519z"
   id="glyph197" />
<glyph
   unicode="Ä"
   horiz-adv-x="1479"
   d="M1471,0l-322,0l-128,333l-586,0l-121,-333l-314,0l571,1466l313,0M926,580l-202,544l-198,-544M383,1550l0,241l241,0l0,-241M813,1550l0,241l242,0l0,-241z"
   id="glyph199" />
<glyph
   unicode="Å"
   horiz-adv-x="1479"
   d="M1471,0l-322,0l-128,333l-586,0l-121,-333l-314,0l571,1466l313,0M926,580l-202,544l-198,-544M921,1562C921,1508 902,1462 864,1424C825,1385 779,1366 725,1366C671,1366 625,1385 587,1424C548,1462 529,1508 529,1562C529,1616 548,1662 587,1701C625,1739 671,1758 725,1758C779,1758 825,1739 864,1701C902,1663 921,1617 921,1562M814,1562C814,1587 805,1608 788,1625C771,1642 750,1651 725,1651C700,1651 679,1642 662,1625C645,1608 636,1587 636,1562C636,1537 645,1516 662,1499C679,1482 700,1473 725,1473C750,1473 771,1482 788,1499C805,1516 814,1537 814,1562z"
   id="glyph201" />
<glyph
   unicode="Ç"
   horiz-adv-x="1479"
   d="M1087,539l287,-91C1330,288 1257,169 1155,92C1052,14 922,-25 765,-25C570,-25 410,42 285,175C160,308 97,489 97,720C97,964 160,1154 286,1289C412,1424 578,1491 783,1491C962,1491 1108,1438 1220,1332C1287,1269 1337,1179 1370,1062l-293,-70C1060,1068 1024,1128 969,1172C914,1216 847,1238 768,1238C659,1238 571,1199 504,1121C436,1043 402,917 402,742C402,557 435,425 502,346C569,267 655,228 762,228C841,228 908,253 965,303C1022,353 1062,432 1087,539M465,-403l0,118C534,-292 597,-296 654,-296C713,-296 757,-285 786,-264C808,-248 819,-227 819,-202C819,-179 809,-160 788,-143C767,-126 735,-118 692,-118C649,-118 606,-125 561,-138l26,99C639,-21 695,-12 755,-12C838,-12 902,-30 945,-67C988,-104 1010,-148 1010,-201C1010,-260 986,-307 938,-344C873,-394 781,-419 660,-419C574,-419 509,-414 465,-403z"
   id="glyph203" />
<glyph
   unicode="É"
   horiz-adv-x="1366"
   d="M149,0l0,1466l1087,0l0,-248l-791,0l0,-325l736,0l0,-247l-736,0l0,-399l819,0l0,-247M525,1550l138,299l315,0l-275,-299z"
   id="glyph205" />
<glyph
   unicode="Ñ"
   horiz-adv-x="1479"
   d="M152,0l0,1466l288,0l600,-979l0,979l275,0l0,-1466l-297,0l-591,956l0,-956M520,1547l-128,0C391,1562 391,1574 391,1583C391,1653 408,1707 442,1745C476,1782 520,1801 573,1801C596,1801 618,1799 638,1794C658,1789 695,1774 748,1751C801,1727 842,1715 872,1715C893,1715 911,1722 926,1735C940,1748 949,1771 953,1802l130,0C1082,1712 1066,1648 1033,1609C1000,1570 957,1551 905,1551C882,1551 860,1553 838,1558C823,1562 784,1576 723,1599C662,1622 617,1634 589,1634C568,1634 551,1628 539,1615C527,1602 521,1579 520,1547z"
   id="glyph207" />
<glyph
   unicode="Ö"
   horiz-adv-x="1593"
   d="M89,724C89,873 111,999 156,1100C189,1175 235,1242 293,1301C350,1360 413,1404 482,1433C573,1472 679,1491 798,1491C1014,1491 1187,1424 1317,1290C1446,1156 1511,970 1511,731C1511,494 1447,309 1318,176C1189,42 1017,-25 802,-25C584,-25 411,42 282,175C153,308 89,491 89,724M394,734C394,568 432,442 509,357C586,271 683,228 801,228C919,228 1016,271 1092,356C1167,441 1205,568 1205,738C1205,906 1168,1031 1095,1114C1021,1197 923,1238 801,1238C679,1238 581,1196 506,1113C431,1029 394,903 394,734M447,1550l0,241l241,0l0,-241M877,1550l0,241l242,0l0,-241z"
   id="glyph209" />
<glyph
   unicode="Ü"
   horiz-adv-x="1479"
   d="M147,1466l296,0l0,-794C443,546 447,464 454,427C467,367 497,319 545,283C592,246 657,228 740,228C824,228 887,245 930,280C973,314 998,356 1007,406C1016,456 1020,539 1020,655l0,811l296,0l0,-770C1316,520 1308,396 1292,323C1276,250 1247,189 1204,139C1161,89 1103,49 1031,20C959,-10 865,-25 749,-25C609,-25 503,-9 431,24C358,56 301,98 259,150C217,201 189,255 176,312C157,396 147,520 147,684M399,1550l0,241l241,0l0,-241M829,1550l0,241l242,0l0,-241z"
   id="glyph211" />
<glyph
   unicode="á"
   horiz-adv-x="1139"
   d="M357,738l-255,46C131,887 180,963 250,1012C320,1061 424,1086 562,1086C687,1086 781,1071 842,1042C903,1012 947,974 972,929C997,883 1009,799 1009,677l-3,-328C1006,256 1011,187 1020,143C1029,98 1045,51 1070,0l-278,0C785,19 776,46 765,83C760,100 757,111 755,116C707,69 656,34 601,11C546,-12 488,-24 426,-24C317,-24 231,6 168,65C105,124 73,199 73,290C73,350 87,404 116,451C145,498 185,534 237,559C288,584 363,605 460,624C591,649 682,672 733,693l0,28C733,775 720,814 693,837C666,860 616,871 542,871C492,871 453,861 425,842C397,822 374,787 357,738M733,510C697,498 640,484 562,467C484,450 433,434 409,418C372,392 354,359 354,319C354,280 369,246 398,217C427,188 465,174 510,174C561,174 609,191 655,224C689,249 711,280 722,317C729,341 733,387 733,454M429,1192l138,299l315,0l-275,-299z"
   id="glyph213" />
<glyph
   unicode="à"
   horiz-adv-x="1139"
   d="M357,738l-255,46C131,887 180,963 250,1012C320,1061 424,1086 562,1086C687,1086 781,1071 842,1042C903,1012 947,974 972,929C997,883 1009,799 1009,677l-3,-328C1006,256 1011,187 1020,143C1029,98 1045,51 1070,0l-278,0C785,19 776,46 765,83C760,100 757,111 755,116C707,69 656,34 601,11C546,-12 488,-24 426,-24C317,-24 231,6 168,65C105,124 73,199 73,290C73,350 87,404 116,451C145,498 185,534 237,559C288,584 363,605 460,624C591,649 682,672 733,693l0,28C733,775 720,814 693,837C666,860 616,871 542,871C492,871 453,861 425,842C397,822 374,787 357,738M733,510C697,498 640,484 562,467C484,450 433,434 409,418C372,392 354,359 354,319C354,280 369,246 398,217C427,188 465,174 510,174C561,174 609,191 655,224C689,249 711,280 722,317C729,341 733,387 733,454M713,1192l-177,0l-276,299l315,0z"
   id="glyph215" />
<glyph
   unicode="â"
   horiz-adv-x="1139"
   d="M357,738l-255,46C131,887 180,963 250,1012C320,1061 424,1086 562,1086C687,1086 781,1071 842,1042C903,1012 947,974 972,929C997,883 1009,799 1009,677l-3,-328C1006,256 1011,187 1020,143C1029,98 1045,51 1070,0l-278,0C785,19 776,46 765,83C760,100 757,111 755,116C707,69 656,34 601,11C546,-12 488,-24 426,-24C317,-24 231,6 168,65C105,124 73,199 73,290C73,350 87,404 116,451C145,498 185,534 237,559C288,584 363,605 460,624C591,649 682,672 733,693l0,28C733,775 720,814 693,837C666,860 616,871 542,871C492,871 453,861 425,842C397,822 374,787 357,738M733,510C697,498 640,484 562,467C484,450 433,434 409,418C372,392 354,359 354,319C354,280 369,246 398,217C427,188 465,174 510,174C561,174 609,191 655,224C689,249 711,280 722,317C729,341 733,387 733,454M233,1196l210,295l260,0l207,-295l-226,0l-116,149l-108,-149z"
   id="glyph217" />
<glyph
   unicode="ä"
   horiz-adv-x="1139"
   d="M357,738l-255,46C131,887 180,963 250,1012C320,1061 424,1086 562,1086C687,1086 781,1071 842,1042C903,1012 947,974 972,929C997,883 1009,799 1009,677l-3,-328C1006,256 1011,187 1020,143C1029,98 1045,51 1070,0l-278,0C785,19 776,46 765,83C760,100 757,111 755,116C707,69 656,34 601,11C546,-12 488,-24 426,-24C317,-24 231,6 168,65C105,124 73,199 73,290C73,350 87,404 116,451C145,498 185,534 237,559C288,584 363,605 460,624C591,649 682,672 733,693l0,28C733,775 720,814 693,837C666,860 616,871 542,871C492,871 453,861 425,842C397,822 374,787 357,738M733,510C697,498 640,484 562,467C484,450 433,434 409,418C372,392 354,359 354,319C354,280 369,246 398,217C427,188 465,174 510,174C561,174 609,191 655,224C689,249 711,280 722,317C729,341 733,387 733,454M236,1250l0,241l241,0l0,-241M666,1250l0,241l242,0l0,-241z"
   id="glyph219" />
<glyph
   unicode="ã"
   horiz-adv-x="1139"
   d="M357,738l-255,46C131,887 180,963 250,1012C320,1061 424,1086 562,1086C687,1086 781,1071 842,1042C903,1012 947,974 972,929C997,883 1009,799 1009,677l-3,-328C1006,256 1011,187 1020,143C1029,98 1045,51 1070,0l-278,0C785,19 776,46 765,83C760,100 757,111 755,116C707,69 656,34 601,11C546,-12 488,-24 426,-24C317,-24 231,6 168,65C105,124 73,199 73,290C73,350 87,404 116,451C145,498 185,534 237,559C288,584 363,605 460,624C591,649 682,672 733,693l0,28C733,775 720,814 693,837C666,860 616,871 542,871C492,871 453,861 425,842C397,822 374,787 357,738M733,510C697,498 640,484 562,467C484,450 433,434 409,418C372,392 354,359 354,319C354,280 369,246 398,217C427,188 465,174 510,174C561,174 609,191 655,224C689,249 711,280 722,317C729,341 733,387 733,454M355,1205l-128,0C226,1220 226,1232 226,1241C226,1311 243,1365 277,1403C311,1440 355,1459 408,1459C431,1459 453,1457 473,1452C493,1447 530,1432 583,1409C636,1385 677,1373 707,1373C728,1373 746,1380 761,1393C775,1406 784,1429 788,1460l130,0C917,1370 901,1306 868,1267C835,1228 792,1209 740,1209C717,1209 695,1211 673,1216C658,1220 619,1234 558,1257C497,1280 452,1292 424,1292C403,1292 386,1286 374,1273C362,1260 356,1237 355,1205z"
   id="glyph221" />
<glyph
   unicode="å"
   horiz-adv-x="1139"
   d="M357,738l-255,46C131,887 180,963 250,1012C320,1061 424,1086 562,1086C687,1086 781,1071 842,1042C903,1012 947,974 972,929C997,883 1009,799 1009,677l-3,-328C1006,256 1011,187 1020,143C1029,98 1045,51 1070,0l-278,0C785,19 776,46 765,83C760,100 757,111 755,116C707,69 656,34 601,11C546,-12 488,-24 426,-24C317,-24 231,6 168,65C105,124 73,199 73,290C73,350 87,404 116,451C145,498 185,534 237,559C288,584 363,605 460,624C591,649 682,672 733,693l0,28C733,775 720,814 693,837C666,860 616,871 542,871C492,871 453,861 425,842C397,822 374,787 357,738M733,510C697,498 640,484 562,467C484,450 433,434 409,418C372,392 354,359 354,319C354,280 369,246 398,217C427,188 465,174 510,174C561,174 609,191 655,224C689,249 711,280 722,317C729,341 733,387 733,454M767,1342C767,1288 748,1242 710,1204C671,1165 625,1146 571,1146C517,1146 471,1165 433,1204C394,1242 375,1288 375,1342C375,1396 394,1442 433,1481C471,1519 517,1538 571,1538C625,1538 671,1519 710,1481C748,1443 767,1397 767,1342M660,1342C660,1367 651,1388 634,1405C617,1422 596,1431 571,1431C546,1431 525,1422 508,1405C491,1388 482,1367 482,1342C482,1317 491,1296 508,1279C525,1262 546,1253 571,1253C596,1253 617,1262 634,1279C651,1296 660,1317 660,1342z"
   id="glyph223" />
<glyph
   unicode="ç"
   horiz-adv-x="1139"
   d="M1073,748l-277,-50C787,753 766,795 733,823C700,851 657,865 604,865C534,865 478,841 437,793C395,744 374,663 374,550C374,424 395,335 438,283C480,231 537,205 608,205C661,205 705,220 739,251C773,281 797,333 811,407l276,-47C1058,233 1003,138 922,73C841,8 732,-24 595,-24C440,-24 316,25 224,123C131,221 85,357 85,530C85,705 131,842 224,940C317,1037 442,1086 600,1086C729,1086 832,1058 909,1003C985,947 1040,862 1073,748M316,-403l0,118C385,-292 448,-296 505,-296C564,-296 608,-285 637,-264C659,-248 670,-227 670,-202C670,-179 660,-160 639,-143C618,-126 586,-118 543,-118C500,-118 457,-125 412,-138l26,99C490,-21 546,-12 606,-12C689,-12 753,-30 796,-67C839,-104 861,-148 861,-201C861,-260 837,-307 789,-344C724,-394 632,-419 511,-419C425,-419 360,-414 316,-403z"
   id="glyph225" />
<glyph
   unicode="é"
   horiz-adv-x="1139"
   d="M762,338l280,-47C1006,188 949,110 872,57C794,3 697,-24 580,-24C395,-24 259,36 170,157C100,254 65,376 65,523C65,699 111,837 203,937C295,1036 411,1086 552,1086C710,1086 835,1034 926,930C1017,825 1061,665 1057,450l-704,0C355,367 378,302 421,256C464,209 518,186 583,186C627,186 664,198 694,222C724,246 747,285 762,338M778,622C776,703 755,765 715,808C675,850 626,871 569,871C508,871 457,849 417,804C377,759 357,699 358,622M419,1192l138,299l315,0l-275,-299z"
   id="glyph227" />
<glyph
   unicode="è"
   horiz-adv-x="1139"
   d="M762,338l280,-47C1006,188 949,110 872,57C794,3 697,-24 580,-24C395,-24 259,36 170,157C100,254 65,376 65,523C65,699 111,837 203,937C295,1036 411,1086 552,1086C710,1086 835,1034 926,930C1017,825 1061,665 1057,450l-704,0C355,367 378,302 421,256C464,209 518,186 583,186C627,186 664,198 694,222C724,246 747,285 762,338M778,622C776,703 755,765 715,808C675,850 626,871 569,871C508,871 457,849 417,804C377,759 357,699 358,622M703,1192l-177,0l-276,299l315,0z"
   id="glyph229" />
<glyph
   unicode="ê"
   horiz-adv-x="1139"
   d="M762,338l280,-47C1006,188 949,110 872,57C794,3 697,-24 580,-24C395,-24 259,36 170,157C100,254 65,376 65,523C65,699 111,837 203,937C295,1036 411,1086 552,1086C710,1086 835,1034 926,930C1017,825 1061,665 1057,450l-704,0C355,367 378,302 421,256C464,209 518,186 583,186C627,186 664,198 694,222C724,246 747,285 762,338M778,622C776,703 755,765 715,808C675,850 626,871 569,871C508,871 457,849 417,804C377,759 357,699 358,622M223,1196l210,295l260,0l207,-295l-226,0l-116,149l-108,-149z"
   id="glyph231" />
<glyph
   unicode="ë"
   horiz-adv-x="1139"
   d="M762,338l280,-47C1006,188 949,110 872,57C794,3 697,-24 580,-24C395,-24 259,36 170,157C100,254 65,376 65,523C65,699 111,837 203,937C295,1036 411,1086 552,1086C710,1086 835,1034 926,930C1017,825 1061,665 1057,450l-704,0C355,367 378,302 421,256C464,209 518,186 583,186C627,186 664,198 694,222C724,246 747,285 762,338M778,622C776,703 755,765 715,808C675,850 626,871 569,871C508,871 457,849 417,804C377,759 357,699 358,622M225,1250l0,241l241,0l0,-241M655,1250l0,241l242,0l0,-241z"
   id="glyph233" />
<glyph
   unicode="í"
   horiz-adv-x="569"
   d="M147,0l0,1062l281,0l0,-1062M126,1192l138,299l315,0l-275,-299z"
   id="glyph235" />
<glyph
   unicode="ì"
   horiz-adv-x="569"
   d="M147,0l0,1062l281,0l0,-1062M430,1192l-177,0l-276,299l315,0z"
   id="glyph237" />
<glyph
   unicode="î"
   horiz-adv-x="569"
   d="M147,0l0,1062l281,0l0,-1062M-51,1196l210,295l260,0l207,-295l-226,0l-116,149l-108,-149z"
   id="glyph239" />
<glyph
   unicode="ï"
   horiz-adv-x="569"
   d="M147,0l0,1062l281,0l0,-1062M-48,1250l0,241l241,0l0,-241M382,1250l0,241l242,0l0,-241z"
   id="glyph241" />
<glyph
   unicode="ñ"
   horiz-adv-x="1251"
   d="M1113,0l-281,0l0,542C832,657 826,731 814,765C802,798 783,824 756,843C729,862 696,871 658,871C609,871 566,858 527,831C488,804 462,769 448,725C433,681 426,600 426,481l0,-481l-281,0l0,1062l261,0l0,-156C499,1026 615,1086 756,1086C818,1086 875,1075 926,1053C977,1030 1016,1002 1043,967C1069,932 1087,893 1098,849C1108,805 1113,742 1113,660M412,1205l-128,0C283,1220 283,1232 283,1241C283,1311 300,1365 334,1403C368,1440 412,1459 465,1459C488,1459 510,1457 530,1452C550,1447 587,1432 640,1409C693,1385 734,1373 764,1373C785,1373 803,1380 818,1393C832,1406 841,1429 845,1460l130,0C974,1370 958,1306 925,1267C892,1228 849,1209 797,1209C774,1209 752,1211 730,1216C715,1220 676,1234 615,1257C554,1280 509,1292 481,1292C460,1292 443,1286 431,1273C419,1260 413,1237 412,1205z"
   id="glyph243" />
<glyph
   unicode="ó"
   horiz-adv-x="1251"
   d="M82,546C82,639 105,730 151,817C197,904 262,971 347,1017C431,1063 525,1086 629,1086C790,1086 921,1034 1024,930C1127,825 1178,693 1178,534C1178,373 1126,240 1023,135C919,29 788,-24 631,-24C534,-24 441,-2 353,42C264,86 197,151 151,236C105,321 82,424 82,546M370,531C370,426 395,345 445,289C495,233 557,205 630,205C703,205 765,233 815,289C864,345 889,426 889,533C889,637 864,717 815,773C765,829 703,857 630,857C557,857 495,829 445,773C395,717 370,636 370,531M488,1192l138,299l315,0l-275,-299z"
   id="glyph245" />
<glyph
   unicode="ò"
   horiz-adv-x="1251"
   d="M82,546C82,639 105,730 151,817C197,904 262,971 347,1017C431,1063 525,1086 629,1086C790,1086 921,1034 1024,930C1127,825 1178,693 1178,534C1178,373 1126,240 1023,135C919,29 788,-24 631,-24C534,-24 441,-2 353,42C264,86 197,151 151,236C105,321 82,424 82,546M370,531C370,426 395,345 445,289C495,233 557,205 630,205C703,205 765,233 815,289C864,345 889,426 889,533C889,637 864,717 815,773C765,829 703,857 630,857C557,857 495,829 445,773C395,717 370,636 370,531M771,1192l-177,0l-276,299l315,0z"
   id="glyph247" />
<glyph
   unicode="ô"
   horiz-adv-x="1251"
   d="M82,546C82,639 105,730 151,817C197,904 262,971 347,1017C431,1063 525,1086 629,1086C790,1086 921,1034 1024,930C1127,825 1178,693 1178,534C1178,373 1126,240 1023,135C919,29 788,-24 631,-24C534,-24 441,-2 353,42C264,86 197,151 151,236C105,321 82,424 82,546M370,531C370,426 395,345 445,289C495,233 557,205 630,205C703,205 765,233 815,289C864,345 889,426 889,533C889,637 864,717 815,773C765,829 703,857 630,857C557,857 495,829 445,773C395,717 370,636 370,531M291,1196l210,295l260,0l207,-295l-226,0l-116,149l-108,-149z"
   id="glyph249" />
<glyph
   unicode="ö"
   horiz-adv-x="1251"
   d="M82,546C82,639 105,730 151,817C197,904 262,971 347,1017C431,1063 525,1086 629,1086C790,1086 921,1034 1024,930C1127,825 1178,693 1178,534C1178,373 1126,240 1023,135C919,29 788,-24 631,-24C534,-24 441,-2 353,42C264,86 197,151 151,236C105,321 82,424 82,546M370,531C370,426 395,345 445,289C495,233 557,205 630,205C703,205 765,233 815,289C864,345 889,426 889,533C889,637 864,717 815,773C765,829 703,857 630,857C557,857 495,829 445,773C395,717 370,636 370,531M283,1250l0,241l241,0l0,-241M713,1250l0,241l242,0l0,-241z"
   id="glyph251" />
<glyph
   unicode="õ"
   horiz-adv-x="1251"
   d="M82,546C82,639 105,730 151,817C197,904 262,971 347,1017C431,1063 525,1086 629,1086C790,1086 921,1034 1024,930C1127,825 1178,693 1178,534C1178,373 1126,240 1023,135C919,29 788,-24 631,-24C534,-24 441,-2 353,42C264,86 197,151 151,236C105,321 82,424 82,546M370,531C370,426 395,345 445,289C495,233 557,205 630,205C703,205 765,233 815,289C864,345 889,426 889,533C889,637 864,717 815,773C765,829 703,857 630,857C557,857 495,829 445,773C395,717 370,636 370,531M413,1205l-128,0C284,1220 284,1232 284,1241C284,1311 301,1365 335,1403C369,1440 413,1459 466,1459C489,1459 511,1457 531,1452C551,1447 588,1432 641,1409C694,1385 735,1373 765,1373C786,1373 804,1380 819,1393C833,1406 842,1429 846,1460l130,0C975,1370 959,1306 926,1267C893,1228 850,1209 798,1209C775,1209 753,1211 731,1216C716,1220 677,1234 616,1257C555,1280 510,1292 482,1292C461,1292 444,1286 432,1273C420,1260 414,1237 413,1205z"
   id="glyph253" />
<glyph
   unicode="ú"
   horiz-adv-x="1251"
   d="M846,0l0,159C807,102 757,58 694,25C631,-8 564,-24 494,-24C423,-24 359,-8 302,23C245,54 204,98 179,155C154,212 141,290 141,390l0,672l281,0l0,-488C422,425 427,333 438,300C448,266 467,239 494,220C521,200 556,190 598,190C646,190 689,203 727,230C765,256 791,289 805,328C819,367 826,462 826,614l0,448l281,0l0,-1062M482,1192l138,299l315,0l-275,-299z"
   id="glyph255" />
<glyph
   unicode="ù"
   horiz-adv-x="1251"
   d="M846,0l0,159C807,102 757,58 694,25C631,-8 564,-24 494,-24C423,-24 359,-8 302,23C245,54 204,98 179,155C154,212 141,290 141,390l0,672l281,0l0,-488C422,425 427,333 438,300C448,266 467,239 494,220C521,200 556,190 598,190C646,190 689,203 727,230C765,256 791,289 805,328C819,367 826,462 826,614l0,448l281,0l0,-1062M766,1192l-177,0l-276,299l315,0z"
   id="glyph257" />
<glyph
   unicode="û"
   horiz-adv-x="1251"
   d="M846,0l0,159C807,102 757,58 694,25C631,-8 564,-24 494,-24C423,-24 359,-8 302,23C245,54 204,98 179,155C154,212 141,290 141,390l0,672l281,0l0,-488C422,425 427,333 438,300C448,266 467,239 494,220C521,200 556,190 598,190C646,190 689,203 727,230C765,256 791,289 805,328C819,367 826,462 826,614l0,448l281,0l0,-1062M286,1196l210,295l260,0l207,-295l-226,0l-116,149l-108,-149z"
   id="glyph259" />
<glyph
   unicode="ü"
   horiz-adv-x="1251"
   d="M846,0l0,159C807,102 757,58 694,25C631,-8 564,-24 494,-24C423,-24 359,-8 302,23C245,54 204,98 179,155C154,212 141,290 141,390l0,672l281,0l0,-488C422,425 427,333 438,300C448,266 467,239 494,220C521,200 556,190 598,190C646,190 689,203 727,230C765,256 791,289 805,328C819,367 826,462 826,614l0,448l281,0l0,-1062M288,1250l0,241l241,0l0,-241M718,1250l0,241l242,0l0,-241z"
   id="glyph261" />
<glyph
   unicode="°"
   horiz-adv-x="819"
   d="M86,1172C86,1261 117,1336 180,1398C242,1460 317,1491 405,1491C493,1491 568,1460 631,1398C693,1335 724,1260 724,1172C724,1084 693,1009 631,947C568,884 493,853 405,853C317,853 242,884 180,947C117,1009 86,1084 86,1172M252,1172C252,1130 267,1094 297,1064C327,1034 363,1019 405,1019C447,1019 483,1034 513,1064C543,1094 558,1130 558,1172C558,1214 543,1250 513,1280C483,1310 447,1325 405,1325C363,1325 327,1310 297,1280C267,1250 252,1214 252,1172z"
   id="glyph263" />
<glyph
   unicode="¢"
   horiz-adv-x="1139"
   d="M744,811l-182,-602C577,206 592,205 607,205C660,205 703,220 738,251C772,281 796,333 810,407l276,-47C1057,233 1002,138 921,73C840,8 731,-24 595,-24C562,-24 528,-22 494,-17l-117,-386l-122,34l116,385C279,56 208,122 159,213C109,304 84,411 84,535C84,708 130,843 223,940C316,1037 441,1086 598,1086C628,1086 659,1084 692,1080l113,376l123,-35l-112,-371C942,1002 1027,901 1072,748l-277,-50C787,746 770,784 744,811M627,864C618,865 610,865 603,865C532,865 476,841 435,792C393,743 372,662 372,549C372,420 397,326 448,269z"
   id="glyph265" />
<glyph
   unicode="£"
   horiz-adv-x="1139"
   d="M999,285l108,-238C1069,26 1025,10 976,-3C926,-16 878,-23 831,-23C771,-23 691,-9 591,20C491,48 417,62 369,62C288,62 205,33 120,-25l-107,242C88,271 143,329 176,390C209,451 225,509 225,564C225,582 224,601 221,621l-208,0l0,221l157,0C143,921 129,1000 129,1081C129,1154 149,1223 189,1289C228,1355 284,1405 357,1440C430,1474 509,1491 595,1491C726,1491 831,1458 909,1392C987,1325 1035,1230 1052,1106l-271,-40C768,1137 745,1189 712,1220C679,1251 637,1267 587,1267C534,1267 489,1249 454,1214C419,1178 401,1133 401,1079C401,1051 406,1014 416,968C425,922 437,880 451,842l312,0l0,-221l-266,0C499,606 500,592 500,577C500,524 490,476 470,431C450,386 409,328 347,255C384,274 430,283 485,283C508,283 529,282 548,279C557,278 585,271 630,260C711,239 766,229 795,229C847,229 915,248 999,285z"
   id="glyph267" />
<glyph
   unicode="•"
   horiz-adv-x="717"
   d="M657,724C657,642 628,572 571,515C513,457 443,428 362,428C280,428 210,457 153,515C95,573 66,643 66,724C66,805 95,875 153,933C210,990 280,1019 362,1019C443,1019 513,990 571,933C628,876 657,806 657,724z"
   id="glyph269" />
<glyph
   unicode="¶"
   horiz-adv-x="1139"
   d="M635,-403l-243,0l0,1047C265,653 168,694 100,766C32,838 -2,933 -2,1052C-2,1122 12,1186 39,1245C66,1303 103,1349 150,1383C196,1417 250,1441 313,1454C350,1462 423,1466 532,1466l597,0l0,-261l-113,0l0,-1608l-237,0l0,1608l-144,0z"
   id="glyph271" />
<glyph
   unicode="ß"
   horiz-adv-x="1251"
   d="M139,0l0,952C139,1085 151,1187 175,1256C198,1325 244,1382 312,1426C380,1469 468,1491 577,1491C713,1491 815,1462 882,1404C949,1346 983,1274 983,1188C983,1130 965,1068 929,1002C892,935 871,895 866,880C861,865 858,853 858,842C858,820 866,797 883,773C894,758 934,715 1003,645C1072,575 1119,516 1143,467C1167,418 1179,368 1179,316C1179,219 1146,139 1079,74C1012,9 927,-24 824,-24C753,-24 689,-6 631,31C573,67 529,112 500,165l196,115C710,254 726,234 743,221C760,208 779,201 800,201C827,201 851,211 870,231C889,250 898,275 898,304C898,331 888,359 868,387C857,404 811,450 730,526C617,634 561,719 561,781C561,820 583,885 626,975C660,1044 680,1088 686,1107C692,1126 695,1145 695,1165C695,1194 684,1219 662,1240C640,1261 611,1271 574,1271C541,1271 512,1262 488,1245C463,1228 447,1205 438,1178C426,1141 420,1066 420,952l0,-952z"
   id="glyph273" />
<glyph
   unicode="®"
   horiz-adv-x="1509"
   d="M757,1496C888,1496 1014,1463 1135,1398C1256,1332 1351,1238 1420,1115C1489,992 1523,864 1523,730C1523,597 1489,470 1422,349C1354,228 1260,133 1139,66C1018,-2 890,-36 757,-36C624,-36 497,-2 376,66C255,133 160,228 93,349C25,470 -9,597 -9,730C-9,864 26,992 95,1115C164,1238 258,1332 379,1398C500,1463 626,1496 757,1496M758,1346C653,1346 552,1320 455,1267C358,1214 282,1139 227,1040C171,941 143,838 143,730C143,623 170,520 225,423C279,326 355,250 452,195C549,140 651,113 758,113C865,113 968,140 1065,195C1162,250 1237,326 1292,423C1347,520 1374,623 1374,730C1374,838 1346,941 1291,1040C1235,1139 1159,1214 1062,1267C965,1320 863,1346 758,1346M411,320l0,813l165,0C731,1133 817,1132 836,1131C891,1126 933,1116 964,1099C994,1082 1019,1056 1040,1021C1060,986 1070,947 1070,904C1070,845 1051,795 1013,754C974,712 920,686 851,676C876,667 895,657 908,646C921,635 940,614 963,583C969,575 989,542 1023,484l96,-164l-204,0l-68,132C801,541 763,597 733,620C703,643 665,654 619,654l-43,0l0,-334M576,782l67,0C738,782 798,786 821,793C844,800 862,813 875,832C888,850 895,871 895,894C895,917 889,937 876,955C863,972 844,985 820,993C796,1000 737,1004 643,1004l-67,0z"
   id="glyph275" />
<glyph
   unicode="©"
   horiz-adv-x="1509"
   d="M757,1496C888,1496 1014,1463 1135,1397C1256,1331 1351,1237 1420,1115C1489,992 1523,864 1523,730C1523,597 1489,470 1422,349C1354,228 1260,133 1139,66C1018,-2 890,-36 757,-36C624,-36 497,-2 376,66C255,133 160,228 93,349C25,470 -9,597 -9,730C-9,864 26,992 95,1115C164,1237 258,1331 379,1397C500,1463 626,1496 757,1496M757,1345C652,1345 551,1319 454,1266C357,1213 280,1138 225,1040C170,941 142,838 142,730C142,623 169,521 224,424C278,327 354,251 451,197C548,142 650,115 757,115C864,115 966,142 1063,197C1160,251 1236,327 1291,424C1345,521 1372,623 1372,730C1372,837 1344,940 1289,1039C1234,1138 1158,1213 1061,1266C964,1319 862,1345 757,1345M943,616l161,-54C1079,478 1037,414 978,369C919,324 849,302 768,302C654,302 561,339 489,414C417,489 381,592 381,723C381,809 397,886 429,953C461,1020 507,1071 568,1104C628,1137 695,1154 770,1154C852,1154 921,1135 976,1096C1031,1057 1073,995 1104,911l-162,-38C923,922 899,957 870,979C840,1001 805,1012 764,1012C703,1012 654,989 615,944C576,898 557,826 557,729C557,632 576,560 614,514C652,468 698,445 751,445C796,445 834,458 867,485C900,511 925,555 943,616z"
   id="glyph277" />
<glyph
   unicode="™"
   horiz-adv-x="2048"
   d="M469,647l0,677l-253,0l0,142l665,0l0,-142l-246,0l0,-677M980,647l0,819l259,0l149,-564l150,564l259,0l0,-819l-158,0l0,653l-177,-653l-150,0l-176,653l0,-653z"
   id="glyph279" />
<glyph
   unicode="´"
   horiz-adv-x="682"
   d="M187,1192l138,299l315,0l-275,-299z"
   id="glyph281" />
<glyph
   unicode="Æ"
   horiz-adv-x="2048"
   d="M-86,0l684,1466l1324,0l0,-248l-726,0l0,-326l669,0l0,-248l-669,0l0,-397l753,0l0,-247l-1049,0l0,345l-508,0l-150,-345M501,601l402,0l0,643l-115,0z"
   id="glyph283" />
<glyph
   unicode="Ø"
   horiz-adv-x="1593"
   d="M1239,1359l158,177l139,-122l-167,-188C1414,1166 1448,1092 1473,1005C1498,917 1510,824 1510,725C1510,492 1446,309 1317,176C1188,42 1018,-25 807,-25C624,-25 477,17 367,100l-162,-182l-142,124l171,192C137,364 88,533 88,742C88,973 152,1156 281,1290C410,1424 581,1491 796,1491C974,1491 1122,1447 1239,1359M1055,1153C988,1210 902,1239 799,1239C678,1239 580,1197 505,1114C430,1030 393,904 393,735C393,629 408,538 439,463M1164,996l-615,-691C618,245 700,215 797,215C916,215 1013,258 1090,344C1166,430 1204,558 1204,729C1204,837 1191,926 1164,996z"
   id="glyph285" />
<glyph
   unicode="±"
   horiz-adv-x="1124"
   d="M434,356l0,381l-384,0l0,263l384,0l0,381l256,0l0,-381l385,0l0,-263l-385,0l0,-381M50,0l0,263l1025,0l0,-263z"
   id="glyph287" />
<glyph
   unicode="¥"
   horiz-adv-x="1139"
   d="M422,273l-371,0l0,221l371,0l0,120l-371,0l0,221l261,0l-311,631l308,0l200,-426C534,987 552,940 563,899C576,943 594,990 617,1040l204,426l308,0l-315,-631l265,0l0,-221l-376,0l0,-120l376,0l0,-221l-376,0l0,-273l-281,0z"
   id="glyph289" />
<glyph
   unicode="µ"
   horiz-adv-x="1180"
   d="M111,1062l279,0l0,-481C390,442 404,348 432,298C467,233 520,201 589,201C626,201 662,213 695,237C728,261 753,294 769,337C785,380 793,460 793,578l0,484l284,0l0,-1062l-262,0l0,128C795,91 776,63 758,44C740,25 716,9 686,-5C655,-19 627,-26 602,-26C555,-26 513,-13 476,13C450,32 421,71 390,128l0,-535l-279,0z"
   id="glyph291" />
<glyph
   unicode="æ"
   horiz-adv-x="1821"
   d="M1436,339l275,-49C1673,185 1615,107 1538,55C1461,2 1362,-24 1242,-24C1167,-24 1098,-12 1035,13C972,37 914,73 863,122C816,81 755,47 680,19C605,-10 527,-24 448,-24C335,-24 246,6 183,65C120,124 88,198 88,288C88,342 99,390 122,432C144,474 171,507 203,531C234,554 278,575 335,592C362,601 441,619 573,646C639,660 695,675 742,690l0,28C742,769 728,808 700,833C672,858 628,871 567,871C514,871 471,860 440,839C409,817 386,783 373,738l-255,49C151,890 204,965 276,1014C347,1062 456,1086 603,1086C672,1086 734,1078 789,1062C843,1045 889,1021 928,988C969,1021 1013,1045 1062,1062C1110,1078 1162,1086 1217,1086C1324,1086 1414,1064 1488,1019C1561,974 1619,907 1662,820C1704,732 1725,608 1724,448l-706,0C1029,357 1055,292 1094,251C1133,210 1182,190 1239,190C1286,190 1327,202 1360,227C1393,251 1419,288 1436,339M1447,624C1443,683 1435,725 1423,751C1406,788 1381,818 1348,839C1314,860 1274,871 1229,871C1190,871 1155,862 1126,844C1096,825 1072,798 1055,761C1032,712 1021,667 1023,624M740,508C586,467 502,445 489,440C444,425 413,408 396,387C378,366 369,342 369,314C369,275 384,242 413,215C442,188 479,174 526,174C575,174 622,190 665,221C697,244 718,274 727,309C736,344 740,410 740,508z"
   id="glyph293" />
<glyph
   unicode="ø"
   horiz-adv-x="1251"
   d="M946,999l104,120l112,-92l-108,-124C1094,856 1126,800 1149,735C1172,670 1183,601 1183,530C1183,371 1131,239 1026,134C921,29 790,-24 632,-24C517,-24 415,4 325,60l-115,-133l-110,95l116,134C176,205 145,263 122,330C99,397 87,466 87,537C87,697 138,829 241,932C343,1035 474,1086 634,1086C753,1086 857,1057 946,999M788,817C743,853 693,871 636,871C561,871 497,842 445,784C392,726 366,645 366,540C366,474 375,415 394,362M874,695l-392,-453C526,210 576,194 633,194C710,194 774,223 826,281C878,338 904,419 904,523C904,586 894,643 874,695z"
   id="glyph295" />
<glyph
   unicode="¿"
   horiz-adv-x="1251"
   d="M763,1062l0,-281l-281,0l0,281M509,684l254,0C764,640 765,615 765,608C765,532 751,467 722,412C693,357 636,295 552,226C467,157 417,109 400,82C383,55 375,24 375,-11C375,-62 397,-107 441,-146C485,-185 544,-205 618,-205C689,-205 749,-185 796,-145C843,-106 877,-43 896,42l258,-33C1143,-74 1119,-144 1083,-199C1034,-274 970,-330 891,-366C812,-402 724,-420 629,-420C468,-420 340,-378 245,-293C149,-209 101,-112 101,-1C101,42 110,83 127,124C144,164 170,204 207,245C243,286 301,339 380,404C438,451 474,490 489,521C503,552 510,606 509,684z"
   id="glyph297" />
<glyph
   unicode="¡"
   horiz-adv-x="682"
   d="M488,1062l0,-281l-282,0l0,281M426,678l73,-741l0,-344l-304,0l0,344l73,741z"
   id="glyph299" />
<glyph
   unicode="«"
   horiz-adv-x="1139"
   d="M633,983l-260,-451l260,-462l-221,0l-316,462l316,451M1025,983l-259,-451l259,-462l-221,0l-316,462l316,451z"
   id="glyph301" />
<glyph
   unicode="»"
   horiz-adv-x="1139"
   d="M498,70l260,452l-260,461l221,0l316,-461l-316,-452M106,70l260,452l-260,461l221,0l316,-461l-316,-452z"
   id="glyph303" />
<glyph
   unicode="…"
   horiz-adv-x="2048"
   d="M1566,0l0,281l282,0l0,-281M884,0l0,281l281,0l0,-281M201,0l0,281l281,0l0,-281z"
   id="glyph305" />
<glyph
   unicode="À"
   horiz-adv-x="1479"
   d="M1471,0l-322,0l-128,333l-586,0l-121,-333l-314,0l571,1466l313,0M926,580l-202,544l-198,-544M891,1550l-177,0l-276,299l315,0z"
   id="glyph307" />
<glyph
   unicode="Ã"
   horiz-adv-x="1479"
   d="M1471,0l-322,0l-128,333l-586,0l-121,-333l-314,0l571,1466l313,0M926,580l-202,544l-198,-544M495,1547l-128,0C366,1562 366,1574 366,1583C366,1653 383,1707 417,1745C451,1782 495,1801 548,1801C571,1801 593,1799 613,1794C633,1789 670,1774 723,1751C776,1727 817,1715 847,1715C868,1715 886,1722 901,1735C915,1748 924,1771 928,1802l130,0C1057,1712 1041,1648 1008,1609C975,1570 932,1551 880,1551C857,1551 835,1553 813,1558C798,1562 759,1576 698,1599C637,1622 592,1634 564,1634C543,1634 526,1628 514,1615C502,1602 496,1579 495,1547z"
   id="glyph309" />
<glyph
   unicode="Õ"
   horiz-adv-x="1593"
   d="M89,724C89,873 111,999 156,1100C189,1175 235,1242 293,1301C350,1360 413,1404 482,1433C573,1472 679,1491 798,1491C1014,1491 1187,1424 1317,1290C1446,1156 1511,970 1511,731C1511,494 1447,309 1318,176C1189,42 1017,-25 802,-25C584,-25 411,42 282,175C153,308 89,491 89,724M394,734C394,568 432,442 509,357C586,271 683,228 801,228C919,228 1016,271 1092,356C1167,441 1205,568 1205,738C1205,906 1168,1031 1095,1114C1021,1197 923,1238 801,1238C679,1238 581,1196 506,1113C431,1029 394,903 394,734M559,1547l-128,0C430,1562 430,1574 430,1583C430,1653 447,1707 481,1745C515,1782 559,1801 612,1801C635,1801 657,1799 677,1794C697,1789 734,1774 787,1751C840,1727 881,1715 911,1715C932,1715 950,1722 965,1735C979,1748 988,1771 992,1802l130,0C1121,1712 1105,1648 1072,1609C1039,1570 996,1551 944,1551C921,1551 899,1553 877,1558C862,1562 823,1576 762,1599C701,1622 656,1634 628,1634C607,1634 590,1628 578,1615C566,1602 560,1579 559,1547z"
   id="glyph311" />
<glyph
   unicode="–"
   horiz-adv-x="1139"
   d="M-4,426l0,210l1139,0l0,-210z"
   id="glyph313" />
<glyph
   unicode="—"
   horiz-adv-x="2048"
   d="M0,426l0,210l2048,0l0,-210z"
   id="glyph315" />
<glyph
   unicode="“"
   horiz-adv-x="1024"
   d="M413,872l-281,0l0,201C132,1154 139,1219 154,1266C168,1313 194,1355 233,1392C272,1429 321,1459 381,1480l55,-116C380,1345 340,1319 316,1286C291,1253 278,1208 277,1153l136,0M882,872l-281,0l0,201C601,1155 608,1219 623,1266C637,1313 664,1355 703,1392C742,1429 791,1459 850,1480l55,-116C849,1345 809,1319 785,1286C760,1253 747,1208 746,1153l136,0z"
   id="glyph317" />
<glyph
   unicode="”"
   horiz-adv-x="1024"
   d="M600,1466l281,0l0,-202C881,1183 874,1119 860,1072C845,1025 819,983 780,946C741,908 691,878 632,857l-55,117C633,993 673,1019 698,1052C722,1085 734,1130 735,1185l-135,0M128,1466l281,0l0,-202C409,1183 402,1119 388,1072C374,1025 348,983 309,946C270,908 220,878 160,857l-55,117C162,993 202,1019 226,1052C250,1085 263,1130 264,1185l-136,0z"
   id="glyph319" />
<glyph
   unicode="‘"
   horiz-adv-x="569"
   d="M433,872l-281,0l0,201C152,1154 159,1219 174,1266C188,1313 214,1355 253,1392C292,1429 341,1459 401,1480l55,-116C400,1345 360,1319 336,1286C311,1253 298,1208 297,1153l136,0z"
   id="glyph321" />
<glyph
   unicode="’"
   horiz-adv-x="569"
   d="M140,1462l281,0l0,-201C421,1180 414,1116 400,1069C386,1022 360,979 321,942C282,905 232,875 172,854l-55,116C174,989 214,1014 238,1047C262,1080 275,1124 276,1181l-136,0z"
   id="glyph323" />
<glyph
   unicode="÷"
   horiz-adv-x="1124"
   d="M421,981l0,281l281,0l0,-281M49,592l0,263l1025,0l0,-263M421,185l0,281l281,0l0,-281z"
   id="glyph325" />
<glyph
   unicode="€"
   horiz-adv-x="1139"
   d="M1075,1430l-59,-277C959,1210 877,1238 768,1238C659,1238 571,1199 504,1121C466,1077 439,1022 423,956l550,0l-32,-155l-538,0C402,786 402,766 402,742C402,719 403,694 404,669l509,0l-32,-155l-456,0C442,443 467,387 502,346C569,267 655,228 762,228C890,228 992,267 1068,346l0,-306C981,-3 880,-25 765,-25C570,-25 410,42 285,175C200,266 143,379 116,514l-148,0l32,155l98,0C97,685 97,702 97,720C97,751 98,778 99,801l-131,0l32,155l119,0C147,1089 203,1200 286,1289C412,1424 578,1491 783,1491C895,1491 992,1471 1075,1430z"
   id="glyph327" />
<glyph
   unicode="ﬁ"
   horiz-adv-x="1251"
   d="M31,1062l156,0l0,80C187,1231 197,1298 216,1342C235,1386 270,1422 321,1450C372,1477 436,1491 514,1491C594,1491 672,1479 749,1455l-38,-196C666,1270 623,1275 582,1275C541,1275 512,1266 495,1247C477,1228 468,1191 468,1137l0,-75l210,0l0,-221l-210,0l0,-841l-281,0l0,841l-156,0M820,1206l0,260l281,0l0,-260M820,0l0,1062l281,0l0,-1062z"
   id="glyph329" />
<glyph
   unicode="ﬂ"
   horiz-adv-x="1251"
   d="M31,1062l156,0l0,80C187,1231 197,1298 216,1342C235,1386 270,1422 321,1450C372,1477 436,1491 514,1491C594,1491 672,1479 749,1455l-38,-196C666,1270 623,1275 582,1275C541,1275 512,1266 495,1247C477,1228 468,1191 468,1137l0,-75l210,0l0,-221l-210,0l0,-841l-281,0l0,841l-156,0M820,0l0,1466l281,0l0,-1466z"
   id="glyph331" />
<glyph
   unicode="·"
   horiz-adv-x="569"
   d="M147,573l0,281l281,0l0,-281z"
   id="glyph333" />
<glyph
   unicode="Â"
   horiz-adv-x="1479"
   d="M1471,0l-322,0l-128,333l-586,0l-121,-333l-314,0l571,1466l313,0M926,580l-202,544l-198,-544M386,1550l210,295l260,0l207,-295l-226,0l-116,149l-108,-149z"
   id="glyph335" />
<glyph
   unicode="Ê"
   horiz-adv-x="1366"
   d="M149,0l0,1466l1087,0l0,-248l-791,0l0,-325l736,0l0,-247l-736,0l0,-399l819,0l0,-247M337,1550l210,295l260,0l207,-295l-226,0l-116,149l-108,-149z"
   id="glyph337" />
<glyph
   unicode="Á"
   horiz-adv-x="1479"
   d="M1471,0l-322,0l-128,333l-586,0l-121,-333l-314,0l571,1466l313,0M926,580l-202,544l-198,-544M554,1550l138,299l315,0l-275,-299z"
   id="glyph339" />
<glyph
   unicode="Ë"
   horiz-adv-x="1366"
   d="M149,0l0,1466l1087,0l0,-248l-791,0l0,-325l736,0l0,-247l-736,0l0,-399l819,0l0,-247M354,1550l0,241l241,0l0,-241M784,1550l0,241l242,0l0,-241z"
   id="glyph341" />
<glyph
   unicode="È"
   horiz-adv-x="1366"
   d="M149,0l0,1466l1087,0l0,-248l-791,0l0,-325l736,0l0,-247l-736,0l0,-399l819,0l0,-247M862,1550l-177,0l-276,299l315,0z"
   id="glyph343" />
<glyph
   unicode="Í"
   horiz-adv-x="569"
   d="M140,0l0,1466l296,0l0,-1466M106,1550l138,299l315,0l-275,-299z"
   id="glyph345" />
<glyph
   unicode="Î"
   horiz-adv-x="569"
   d="M140,0l0,1466l296,0l0,-1466M-42,1550l210,295l260,0l207,-295l-226,0l-116,149l-108,-149z"
   id="glyph347" />
<glyph
   unicode="Ï"
   horiz-adv-x="569"
   d="M140,0l0,1466l296,0l0,-1466M-45,1550l0,241l241,0l0,-241M385,1550l0,241l242,0l0,-241z"
   id="glyph349" />
<glyph
   unicode="Ì"
   horiz-adv-x="569"
   d="M140,0l0,1466l296,0l0,-1466M443,1550l-177,0l-276,299l315,0z"
   id="glyph351" />
<glyph
   unicode="Ó"
   horiz-adv-x="1593"
   d="M89,724C89,873 111,999 156,1100C189,1175 235,1242 293,1301C350,1360 413,1404 482,1433C573,1472 679,1491 798,1491C1014,1491 1187,1424 1317,1290C1446,1156 1511,970 1511,731C1511,494 1447,309 1318,176C1189,42 1017,-25 802,-25C584,-25 411,42 282,175C153,308 89,491 89,724M394,734C394,568 432,442 509,357C586,271 683,228 801,228C919,228 1016,271 1092,356C1167,441 1205,568 1205,738C1205,906 1168,1031 1095,1114C1021,1197 923,1238 801,1238C679,1238 581,1196 506,1113C431,1029 394,903 394,734M618,1550l138,299l315,0l-275,-299z"
   id="glyph353" />
<glyph
   unicode="Ô"
   horiz-adv-x="1593"
   d="M89,724C89,873 111,999 156,1100C189,1175 235,1242 293,1301C350,1360 413,1404 482,1433C573,1472 679,1491 798,1491C1014,1491 1187,1424 1317,1290C1446,1156 1511,970 1511,731C1511,494 1447,309 1318,176C1189,42 1017,-25 802,-25C584,-25 411,42 282,175C153,308 89,491 89,724M394,734C394,568 432,442 509,357C586,271 683,228 801,228C919,228 1016,271 1092,356C1167,441 1205,568 1205,738C1205,906 1168,1031 1095,1114C1021,1197 923,1238 801,1238C679,1238 581,1196 506,1113C431,1029 394,903 394,734M450,1550l210,295l260,0l207,-295l-226,0l-116,149l-108,-149z"
   id="glyph355" />
<glyph
   unicode="Ò"
   horiz-adv-x="1593"
   d="M89,724C89,873 111,999 156,1100C189,1175 235,1242 293,1301C350,1360 413,1404 482,1433C573,1472 679,1491 798,1491C1014,1491 1187,1424 1317,1290C1446,1156 1511,970 1511,731C1511,494 1447,309 1318,176C1189,42 1017,-25 802,-25C584,-25 411,42 282,175C153,308 89,491 89,724M394,734C394,568 432,442 509,357C586,271 683,228 801,228C919,228 1016,271 1092,356C1167,441 1205,568 1205,738C1205,906 1168,1031 1095,1114C1021,1197 923,1238 801,1238C679,1238 581,1196 506,1113C431,1029 394,903 394,734M955,1550l-177,0l-276,299l315,0z"
   id="glyph357" />
<glyph
   unicode="Ú"
   horiz-adv-x="1479"
   d="M147,1466l296,0l0,-794C443,546 447,464 454,427C467,367 497,319 545,283C592,246 657,228 740,228C824,228 887,245 930,280C973,314 998,356 1007,406C1016,456 1020,539 1020,655l0,811l296,0l0,-770C1316,520 1308,396 1292,323C1276,250 1247,189 1204,139C1161,89 1103,49 1031,20C959,-10 865,-25 749,-25C609,-25 503,-9 431,24C358,56 301,98 259,150C217,201 189,255 176,312C157,396 147,520 147,684M550,1550l138,299l315,0l-275,-299z"
   id="glyph359" />
<glyph
   unicode="Û"
   horiz-adv-x="1479"
   d="M147,1466l296,0l0,-794C443,546 447,464 454,427C467,367 497,319 545,283C592,246 657,228 740,228C824,228 887,245 930,280C973,314 998,356 1007,406C1016,456 1020,539 1020,655l0,811l296,0l0,-770C1316,520 1308,396 1292,323C1276,250 1247,189 1204,139C1161,89 1103,49 1031,20C959,-10 865,-25 749,-25C609,-25 503,-9 431,24C358,56 301,98 259,150C217,201 189,255 176,312C157,396 147,520 147,684M402,1550l210,295l260,0l207,-295l-226,0l-116,149l-108,-149z"
   id="glyph361" />
<glyph
   unicode="Ù"
   horiz-adv-x="1479"
   d="M147,1466l296,0l0,-794C443,546 447,464 454,427C467,367 497,319 545,283C592,246 657,228 740,228C824,228 887,245 930,280C973,314 998,356 1007,406C1016,456 1020,539 1020,655l0,811l296,0l0,-770C1316,520 1308,396 1292,323C1276,250 1247,189 1204,139C1161,89 1103,49 1031,20C959,-10 865,-25 749,-25C609,-25 503,-9 431,24C358,56 301,98 259,150C217,201 189,255 176,312C157,396 147,520 147,684M887,1550l-177,0l-276,299l315,0z"
   id="glyph363" />
<glyph
   unicode="¦"
   horiz-adv-x="573"
   d="M176,701l0,790l223,0l0,-790M176,-431l0,791l223,0l0,-791z"
   id="glyph365" />
<glyph
   unicode="Ð"
   horiz-adv-x="1479"
   d="M149,1466l540,0C813,1466 907,1456 971,1437C1058,1411 1132,1365 1193,1300C1254,1234 1301,1154 1332,1061C1363,968 1378,852 1378,715C1378,594 1361,486 1327,389C1292,292 1242,211 1175,146C1124,97 1055,59 968,31C903,10 815,0 705,0l-556,0l0,640l-152,0l0,186l152,0M444,1218l0,-392l314,0l0,-186l-314,0l0,-393l222,0C764,247 835,255 878,271C935,291 979,328 1009,381C1051,456 1072,571 1072,726C1072,836 1063,921 1046,981C1028,1040 1002,1088 968,1125C933,1162 888,1187 833,1202C790,1213 705,1218 578,1218z"
   id="glyph367" />
<glyph
   unicode="ð"
   horiz-adv-x="1251"
   d="M332,1466l293,0C663,1437 699,1407 734,1377l181,89l45,-98l-144,-67C944,1172 1036,1043 1092,914C1147,784 1175,661 1175,546C1175,374 1124,236 1021,132C918,27 786,-25 623,-25C466,-25 337,27 236,131C134,234 83,368 83,533C83,695 137,828 245,932C335,1019 436,1062 549,1062C585,1062 621,1057 658,1046C685,1038 722,1020 771,993C745,1040 723,1076 706,1102C689,1128 662,1164 625,1210l-250,-119l-43,96l218,103C483,1351 411,1410 332,1466M376,530C376,424 400,343 449,288C497,232 556,204 626,204C697,204 758,232 808,288C858,344 883,421 883,520C883,619 857,698 806,755C755,812 694,841 624,841C555,841 497,814 449,760C400,705 376,629 376,530z"
   id="glyph369" />
<glyph
   unicode="Ý"
   horiz-adv-x="1366"
   d="M534,0l0,617l-537,849l347,0l345,-580l338,580l341,0l-539,-851l0,-615M495,1550l138,299l315,0l-275,-299z"
   id="glyph371" />
<glyph
   unicode="ý"
   horiz-adv-x="1139"
   d="M14,1062l299,0l254,-754l248,754l291,0l-375,-1022l-67,-185C639,-207 616,-254 594,-287C571,-320 546,-346 517,-366C488,-387 452,-403 410,-414C367,-425 319,-431 266,-431C212,-431 159,-425 107,-414l-25,220C126,-203 166,-207 201,-207C266,-207 315,-188 346,-149C377,-111 401,-62 418,-3M418,1192l138,299l315,0l-275,-299z"
   id="glyph373" />
<glyph
   unicode="Þ"
   horiz-adv-x="1366"
   d="M149,0l0,1466l296,0l0,-276l179,0C804,1190 922,1183 977,1168C1061,1145 1131,1097 1188,1024C1244,950 1272,855 1272,738C1272,649 1256,573 1223,512C1190,451 1149,402 1099,367C1048,332 997,309 945,298C874,283 772,276 638,276l-193,0l0,-276M445,942l0,-417l162,0C718,525 788,529 818,536C859,546 895,568 924,602C953,636 967,681 967,737C967,782 956,822 933,856C910,889 882,912 849,924C816,936 729,942 588,942z"
   id="glyph375" />
<glyph
   unicode="þ"
   horiz-adv-x="1251"
   d="M139,1466l281,0l0,-528C475,993 526,1032 573,1054C619,1075 672,1086 732,1086C855,1086 960,1038 1046,941C1132,844 1175,710 1175,537C1175,360 1132,222 1045,124C958,25 853,-24 730,-24C671,-24 618,-12 571,11C523,34 473,74 420,131l0,-535l-281,0M418,554C418,444 435,363 470,310C519,235 583,198 664,198C726,198 779,225 823,278C866,331 888,414 888,528C888,649 866,737 822,791C778,844 722,871 653,871C586,871 530,845 485,793C440,740 418,661 418,554z"
   id="glyph377" />
<glyph
   unicode="×"
   horiz-adv-x="1196"
   d="M111,420l302,302l-304,303l186,186l304,-303l302,302l181,-182l-302,-302l305,-305l-186,-186l-305,305l-302,-302z"
   id="glyph379" />
<glyph
   unicode="¹"
   horiz-adv-x="682"
   d="M495,727l-190,0l0,513C242,1197 171,1164 91,1142l0,155C154,1315 212,1344 263,1384C299,1412 325,1445 341,1484l154,0z"
   id="glyph381" />
<glyph
   unicode="²"
   horiz-adv-x="682"
   d="M632,885l0,-158l-607,0C32,784 51,834 80,879C109,924 173,986 274,1065C350,1124 396,1164 411,1183C432,1208 442,1234 442,1260C442,1285 434,1304 417,1319C400,1334 375,1341 341,1341C307,1341 282,1333 265,1317C248,1300 238,1270 234,1226l-189,16C55,1320 80,1377 120,1413C173,1460 249,1484 346,1484C439,1484 510,1463 559,1420C608,1377 632,1327 632,1269C632,1233 624,1199 609,1167C594,1134 569,1101 536,1066C519,1049 474,1011 401,954C362,924 335,901 318,885z"
   id="glyph383" />
<glyph
   unicode="³"
   horiz-adv-x="682"
   d="M40,946l184,20C229,929 242,902 261,885C280,867 306,858 337,858C370,858 396,868 416,888C436,908 446,934 446,966C446,995 437,1018 418,1037C399,1056 374,1065 343,1065C323,1065 293,1060 252,1050l23,146C310,1195 337,1199 357,1207C376,1214 390,1224 399,1236C407,1247 411,1260 411,1275C411,1294 404,1310 390,1323C376,1335 355,1341 328,1341C301,1341 279,1334 262,1319C245,1304 234,1278 229,1243l-178,26C68,1338 92,1387 125,1416C176,1461 245,1484 333,1484C416,1484 481,1463 530,1422C578,1381 602,1333 602,1280C602,1255 595,1231 581,1210C562,1180 537,1155 505,1136C550,1120 584,1097 607,1066C630,1035 641,998 641,957C641,894 613,838 557,789C501,740 427,715 336,715C251,715 182,736 131,778C80,820 49,876 40,946z"
   id="glyph385" />
<glyph
   unicode="½"
   horiz-adv-x="1708"
   d="M496,727l-190,0l0,513C243,1197 172,1164 92,1142l0,155C155,1315 213,1344 264,1384C300,1412 326,1445 342,1484l154,0M499,-54l-159,0l869,1538l159,0M1656,115l0,-157l-607,0C1056,15 1075,65 1104,110C1133,155 1198,217 1298,296C1374,355 1420,395 1435,414C1456,439 1466,465 1466,491C1466,516 1458,535 1441,550C1424,565 1399,572 1365,572C1332,572 1307,564 1290,548C1273,531 1262,501 1259,457l-190,16C1079,550 1104,607 1145,644C1198,691 1273,715 1370,715C1463,715 1534,694 1583,651C1632,608 1656,558 1656,500C1656,464 1649,430 1634,398C1619,365 1594,332 1560,297C1543,280 1498,242 1425,185C1387,155 1360,132 1343,115z"
   id="glyph387" />
<glyph
   unicode="¼"
   horiz-adv-x="1708"
   d="M496,727l-190,0l0,513C243,1197 172,1164 92,1142l0,155C155,1315 213,1344 264,1384C300,1412 326,1445 342,1484l154,0M499,-54l-159,0l869,1538l159,0M1403,-42l0,146l-360,0l0,141l382,470l156,0l0,-466l107,0l0,-145l-107,0l0,-146M1403,249l0,225l-183,-225z"
   id="glyph389" />
<glyph
   unicode="¾"
   horiz-adv-x="1708"
   d="M40,946l184,20C229,929 242,902 261,885C280,867 306,858 337,858C370,858 396,868 416,888C436,908 446,934 446,966C446,995 437,1018 418,1037C399,1056 374,1065 343,1065C323,1065 293,1060 252,1050l23,146C310,1195 337,1199 357,1207C376,1214 390,1224 399,1236C407,1247 411,1260 411,1275C411,1294 404,1310 390,1323C376,1335 355,1341 328,1341C301,1341 279,1334 262,1319C245,1304 234,1278 229,1243l-178,26C68,1338 92,1387 125,1416C176,1461 245,1484 333,1484C416,1484 481,1463 530,1422C578,1381 602,1333 602,1280C602,1255 595,1231 581,1210C562,1180 537,1155 505,1136C550,1120 584,1097 607,1066C630,1035 641,998 641,957C641,894 613,838 557,789C501,740 427,715 336,715C251,715 182,736 131,778C80,820 49,876 40,946M523,-54l-159,0l869,1538l158,0M1402,-42l0,146l-360,0l0,141l382,470l156,0l0,-466l108,0l0,-145l-108,0l0,-146M1402,249l0,225l-182,-225z"
   id="glyph391" />
</font>
</defs>
</svg>
